<?xml version="1.0" standalone="no"?>
<!DOCTYPE svg PUBLIC "-//W3C//DTD SVG 1.1//EN" "http://www.w3.org/Graphics/SVG/1.1/DTD/svg11.dtd" >
<svg>
<metadata>
Created by FontForge 20110222 at Sat Nov 19 17:00:44 2011
 By www-data
Linux Libertine by Philipp H. Poll,
Open Font under Terms of following Free Software Licenses:
GPL (General Public License) with font-exception and OFL (Open Font License).
Created with FontForge (http://fontforge.sf.net)
Sept 2003, 2004, 2005, 2006, 2007, 2008, 2009, 2010, 2011
</metadata>
<defs>
<font id="LinBiolinumCapitalsB" horiz-adv-x="1052" >
  <font-face 
    font-family="Linux Biolinum Capitals"
    font-weight="700"
    font-variant="small-caps"
    font-stretch="normal"
    units-per-em="2048"
    panose-1="2 0 8 3 0 0 0 0 0 0"
    ascent="1638"
    descent="-410"
    x-height="948"
    cap-height="1327"
    bbox="-748 -485 2099 1755"
    underline-thickness="81"
    underline-position="-201"
    unicode-range="U+0020-2122"
  />
    <missing-glyph />
    <glyph glyph-name="ellipsis" unicode="&#x2e;&#x2e;&#x2e;" horiz-adv-x="1533" 
d="M111 98v11q39 98 141 139h8q104 -37 141 -139v-11q-20 -63 -53 -94t-88 -45h-8q-63 14 -94 43.5t-47 95.5zM653 98v11q39 98 142 139h8q104 -37 141 -139v-11q-20 -63 -53 -94t-88 -45h-8q-63 14 -94.5 43.5t-47.5 95.5zM1194 98v11q39 98 141 139h8q104 -37 142 -139
v-11q-20 -63 -53 -94t-89 -45h-8q-63 14 -94 43.5t-47 95.5z" />
    <glyph glyph-name="space" unicode=" " horiz-adv-x="512" 
 />
    <glyph glyph-name="exclam" unicode="!" horiz-adv-x="552" 
d="M270 1348q53 0 100.5 -40t47.5 -110q0 -76 -25.5 -204t-34.5 -191q-12 -96 -20 -183.5t-10 -134.5t-4 -55q-2 -16 -18.5 -28.5t-35 -12.5t-34 8.5t-17.5 18.5q0 10 -6 77.5t-13 152.5t-16 157q-8 70 -31.5 192.5t-23.5 202.5q0 74 47 112t94 38zM127 98v11q39 98 141 139
h8q104 -37 142 -139v-11q-20 -63 -53 -94t-89 -45h-8q-63 14 -94 43.5t-47 95.5z" />
    <glyph glyph-name="quotedbl" unicode="&#x22;" horiz-adv-x="768" 
d="M514 864l-31 8q-66 328 -65 340q0 41 35.5 76t97.5 35q41 0 62.5 -12.5t25.5 -26.5t4 -37l-76 -370zM221 862l-31 8q-66 328 -65 340q0 41 36 76t97 35q41 0 62.5 -12.5t25.5 -26.5t4 -37l-76 -371z" />
    <glyph glyph-name="numbersign" unicode="#" 
d="M591 518l35 219h-193q-6 -38 -19.5 -109.5t-19.5 -109.5h197zM734 737l-35 -219h242l-16 -135h-244q-9 -52 -27.5 -170.5t-29.5 -183.5h-109l59 354h-196q-10 -56 -30 -173.5t-32 -180.5h-112l57 354h-203l19 135h205q31 193 34 219h-204l18 135h205q6 33 12 70.5
t12 72.5t11.5 69.5t12 72t11.5 70.5h115l-62 -355h199q10 59 28.5 177t28.5 178h107l-55 -355h239l-18 -135h-242z" />
    <glyph glyph-name="dollar" unicode="$" 
d="M511 763l29 391q-73 -6 -125.5 -60t-52.5 -123q0 -81 41.5 -129.5t107.5 -78.5zM576 517l-33 -438q78 8 125 60.5t47 143.5q0 166 -139 234zM536 -19l-13 -172q-18 -10 -83 -10l13 182q-93 4 -182 25t-132 38.5t-43 18.5l-4 5q23 92 39 223l37 2q44 -66 128.5 -127
t164.5 -81l34 465q-74 30 -131 61t-116.5 76.5t-92 104.5t-32.5 128q0 150 124 239.5t300 89.5l12 163q27 10 84 10l-14 -177q79 -8 153 -28.5t108 -36.5l34 -17l4 -6q-20 -76 -39 -219l-58 -2q-33 63 -90 122.5t-119 83.5l-31 -410q383 -141 384 -382q0 -147 -117.5 -253
t-321.5 -116z" />
    <glyph glyph-name="percent" unicode="%" horiz-adv-x="1304" 
d="M948 109q0 -68 41 -68q63 0 111 82q51 88 51 199q0 117 -80 116q-31 0 -57.5 -29.5t-40.5 -76.5q-25 -76 -25 -223zM758 186q0 131 80 228.5t211 97.5q188 0 188 -186q0 -154 -77 -259.5t-195 -105.5q-113 0 -160 61.5t-47 163.5zM295 756q0 -68 41 -68q63 0 110 82
q51 88 52 199q0 117 -80 116q-31 0 -57.5 -29.5t-41.5 -76.5q-24 -76 -24 -223zM104 834q0 131 80 228t211 97q92 0 140 -45q37 -1 82 -14t80 -25t48 -12q211 0 308 102l96 -43l-842 -1155l-110 25l749 1026q-115 -47 -221 -47q-70 0 -143 38q1 -8 1.5 -17t0.5 -19
q0 -154 -77 -259.5t-196 -105.5q-113 0 -160 62t-47 164z" />
    <glyph glyph-name="ampersand" unicode="&#x26;" horiz-adv-x="1492" 
d="M553 1071q0 -88 84 -211q59 47 88 72.5t58.5 67.5t29.5 79q0 176 -123 176q-55 0 -96 -47t-41 -137zM811 250q-205 270 -293 409q-111 -72 -153.5 -142.5t-42.5 -168.5q0 -129 60 -207t142 -78q84 0 149.5 43.5t137.5 143.5zM924 428q150 231 176 457q20 -6 110 -6
q96 0 117 6q-31 -53 -104.5 -185.5t-135 -241t-81.5 -139.5q8 -12 24.5 -39.5t26.5 -44t25.5 -39t26.5 -37t25.5 -28.5t29 -20.5t26.5 -6.5q45 0 76.5 25t68.5 94l66 -47q-66 -121 -125 -158.5t-139 -37.5q-74 0 -127.5 35.5t-126.5 144.5q-80 -88 -165 -134t-212 -46
q-195 0 -310.5 79.5t-115.5 247.5q0 117 84 212t311 226q-127 197 -127 322q0 102 99.5 187t263.5 85q141 0 217 -61t76 -178q0 -78 -84 -169t-220 -169q66 -117 224 -334z" />
    <glyph glyph-name="quotesingle" unicode="'" horiz-adv-x="440" 
d="M201 862l-31 8q-66 328 -66 340q0 41 36 76t98 35q41 0 62.5 -12.5t25.5 -26.5t4 -37l-76 -371z" />
    <glyph glyph-name="parenleft" unicode="(" horiz-adv-x="692" 
d="M90 665q0 213 138.5 435t334.5 366l66 -49q-28 -27 -54 -57.5t-68.5 -99t-72.5 -145.5t-53 -195.5t-23 -249.5q0 -110 15 -211t41 -178t53.5 -138.5t61.5 -110t55.5 -74.5t44.5 -49l-66 -47q-473 386 -473 803z" />
    <glyph glyph-name="parenright" unicode=")" horiz-adv-x="692" 
d="M602 665q0 -213 -138.5 -435t-334.5 -366l-66 49q28 27 54.5 57.5t68.5 99t72 145.5t53 195t23 249.5t-22.5 251t-52.5 198t-72 148.5t-69 103t-55 61l66 47q473 -385 473 -803z" />
    <glyph glyph-name="asterisk" unicode="*" horiz-adv-x="886" 
d="M403 1159q-74 12 -84 10q-70 -18 -117.5 -2.5t-47.5 78.5q0 25 17 45.5t50 20.5q39 0 98.5 -45t96.5 -62q-4 43 -33 102.5t-29 84.5q0 31 24.5 55t53.5 24q31 0 56.5 -18t25.5 -53q0 -29 -24.5 -96.5t-26.5 -98.5q41 18 93 64.5t89 46.5q41 0 60.5 -23.5t19.5 -46.5
q0 -82 -141 -82q-74 0 -111 -6q25 -27 73 -51.5t74.5 -50t26.5 -72.5q0 -27 -20.5 -43t-44.5 -16q-45 0 -69 31.5t-42 90t-35 84.5q-16 -31 -30.5 -90t-37 -87.5t-75.5 -28.5q-27 0 -43.5 17t-16.5 40q0 49 27 74.5t72.5 50t70.5 53.5z" />
    <glyph glyph-name="plus" unicode="+" horiz-adv-x="1064" 
d="M594 537h348v-123h-348v-348h-123v348h-348v123h348v350h123v-350z" />
    <glyph glyph-name="comma" unicode="," horiz-adv-x="503" 
d="M96 119v12q33 96 140 139h12q164 -57 164 -270q0 -131 -94.5 -229.5t-217.5 -120.5q-12 10 -14 38.5t4 47.5q92 25 145.5 86t53.5 108q0 43 -12.5 56.5t-40.5 13.5q-68 14 -97 36t-43 83z" />
    <glyph glyph-name="hyphen" unicode="-" horiz-adv-x="704" 
d="M571 414h-462q-12 0 -21.5 14t-9.5 31q0 27 17.5 65.5t33.5 38.5h469q29 0 29 -47q0 -20 -19 -61t-37 -41z" />
    <glyph glyph-name="period" unicode="." horiz-adv-x="503" 
d="M111 98v11q39 98 141 139h8q104 -37 141 -139v-11q-20 -63 -53 -94t-88 -45h-8q-63 14 -94 43.5t-47 95.5z" />
    <glyph glyph-name="slash" unicode="/" horiz-adv-x="700" 
d="M639 1323l-485 -1444h-123l485 1444h123z" />
    <glyph glyph-name="zero" unicode="0" 
d="M532 1157q-35 0 -62.5 -20.5t-56 -75.5t-44 -175t-15.5 -298q0 -66 1 -101.5t5.5 -108.5t14.5 -118t28.5 -94t49 -73.5t71.5 -24.5q176 0 176 602q0 170 -26.5 284.5t-62.5 158.5t-79 44zM522 -20q-215 0 -338 182t-123 448q0 299 133.5 469t337.5 170q84 0 160 -30.5
t145.5 -97t111.5 -193.5t42 -299q0 -174 -44 -306.5t-115.5 -203t-149.5 -105t-160 -34.5z" />
    <glyph glyph-name="one" unicode="1" 
d="M752 387q0 -223 24 -387l-4 -6q-88 6 -162 6l-157 -6l-2 6q23 139 22 387v500q0 133 -37 133q-133 0 -223 -12l-4 88q250 57 551 153q14 0 14 -10q-23 -158 -22 -334v-518z" />
    <glyph glyph-name="two" unicode="2" 
d="M463 1139q-74 0 -130.5 -41t-107.5 -133l-90 2l-43 161l6 9q43 37 161 74.5t220 37.5q197 0 327 -82t130 -239q0 -29 -6 -56.5t-10.5 -47t-22.5 -46t-24.5 -39t-35 -42t-34.5 -37t-42 -41t-42 -39.5l-205 -199q-35 -33 -76 -93.5t-41 -82.5h168q115 0 381 18
q-12 -53 -12 -135q0 -43 12 -96q-205 8 -356 8q-12 0 -510 -8l-2 8q0 90 55 177t207 243l152 149q82 84 104 163t22 198q0 90 -48 149.5t-107 59.5z" />
    <glyph glyph-name="three" unicode="3" 
d="M436 63q74 0 141.5 71t67.5 228q0 240 -231 240q-76 0 -101 -4v82q324 23 324 274q0 80 -53.5 144.5t-114.5 64.5q-31 0 -54.5 -3t-45 -16.5t-33.5 -20.5t-29.5 -32.5t-24 -34.5t-25.5 -46t-26 -47l-90 2l-43 161l6 9q47 41 154 77.5t229 36.5q410 0 410 -262
q0 -123 -72.5 -202.5t-191.5 -110.5v-6q131 -12 227 -88t96 -211q0 -182 -148.5 -287t-375.5 -105q-219 0 -350 115l-8 10l45 162l90 2q12 -23 33.5 -66.5t32 -59t34 -39t53 -31t74.5 -7.5z" />
    <glyph glyph-name="four" unicode="4" 
d="M535 1020q-139 -188 -379 -592h379v592zM535 332h-363q-53 0 -68 14l-30 37q-6 10 -15.5 20.5t-16.5 16.5t-7 10q0 2 3 7t6 11.5t5 8.5q287 434 529 792q84 -8 210 0l5 -4q-4 -51 -5 -817h201q31 0 31 -33q0 -18 -19.5 -40.5t-39.5 -22.5h-173q2 -182 23 -332l-4 -6
q-82 6 -148 6l-143 -6l-2 6q21 144 21 332z" />
    <glyph glyph-name="five" unicode="5" 
d="M496 -20q-152 0 -242 20t-152 72l-6 10l43 162l70 2q51 -92 105.5 -129t144.5 -37q80 0 142.5 72.5t62.5 212.5q0 202 -91 265q-57 40 -127 40q-71 0 -115 -19t-101 -65l-49 15q23 56 35.5 315t-5.5 325l4 6q240 -20 291 -20q190 0 403 22l13 -6l-31 -196
q-125 -12 -281 -13q-139 0 -278 17l-15 -301q80 29 244 28q154 0 263 -87q58 -46 94 -118t36 -151q0 -195 -134 -318.5t-324 -123.5z" />
    <glyph glyph-name="six" unicode="6" 
d="M350 592q-2 -23 -2 -96q0 -436 215 -437q59 0 99 82t40 240q0 98 -58 181t-142 83q-64 0 -152 -53zM922 1165q-244 -12 -379 -123q-72 -59 -121 -157t-61 -208q110 58 210 71q117 -2 203 -39t127 -92.5t58.5 -104.5t17.5 -94q0 -72 -24.5 -145.5t-74 -141.5
t-137.5 -109.5t-202 -41.5q-449 0 -449 524q0 158 55.5 304t165.5 243q119 102 252 147t346 51q27 -31 13 -84z" />
    <glyph glyph-name="seven" unicode="7" 
d="M768 1016q-45 0 -606 -31q10 76 10 152q0 35 -10 110q143 -20 655 -20q70 0 131 16l29 -41q-289 -700 -463 -1220l-242 -9l-6 15q51 115 233.5 465t268.5 563z" />
    <glyph glyph-name="eight" unicode="8" 
d="M535 1167q-76 0 -116 -47t-40 -123q0 -51 35 -106t96 -90l59 -35q37 29 57.5 49.5t43 64.5t22.5 95q0 80 -38.5 136t-118.5 56zM920 991q0 -94 -59.5 -158.5t-182.5 -115.5l121 -72q78 -53 129 -141t51 -174q0 -182 -154 -285q-100 -66 -309 -65q-172 0 -302 86t-130 233
q0 111 70.5 192.5t212.5 155.5l-37 21q-182 102 -183 280q0 131 109 216t291 85q164 0 268.5 -70.5t104.5 -187.5zM520 61q92 0 145.5 47.5t53.5 180.5q0 88 -34 146.5t-122 115.5l-88 47q-82 -61 -108.5 -134t-26.5 -165q0 -106 55 -172t125 -66z" />
    <glyph glyph-name="nine" unicode="9" 
d="M719 637q2 23 2 96q0 436 -215 436q-59 0 -99 -81.5t-40 -239.5q0 -98 58 -181t142 -83q64 0 152 53zM147 63q244 12 379 123q48 39 86.5 96.5t63 127t32.5 142.5q-110 -58 -210 -71q-117 2 -203 39t-127 92.5t-58.5 104.5t-17.5 94q0 72 24.5 145.5t74 141t137.5 109.5
t202 42q449 0 449 -524q0 -158 -55.5 -304.5t-165.5 -242.5q-119 -102 -252 -147t-346 -51q-27 30 -13 83z" />
    <glyph glyph-name="colon" unicode=":" horiz-adv-x="518" 
d="M125 735v10q39 98 141 140h8q104 -37 142 -140v-10q-20 -63 -53 -94t-89 -45h-8q-63 14 -94 43.5t-47 95.5zM125 139v11q39 98 141 139h8q104 -37 142 -139v-11q-20 -63 -53 -94t-89 -45h-8q-63 14 -94 43.5t-47 95.5z" />
    <glyph glyph-name="semicolon" unicode=";" horiz-adv-x="518" 
d="M125 737v11q39 98 141 139h8q104 -37 142 -139v-11q-20 -63 -53 -94t-89 -45h-8q-63 14 -94 43.5t-47 95.5zM123 119v12q33 96 139 139h12q164 -57 164 -270q0 -131 -94 -229.5t-217 -120.5q-12 10 -14 38.5t4 47.5q92 25 145 86t53 108q0 43 -12 56.5t-41 13.5
q-68 14 -96.5 36t-42.5 83z" />
    <glyph glyph-name="less" unicode="&#x3c;" horiz-adv-x="1048" 
d="M313 492l652 -218v-168l-879 320v131l879 320v-168z" />
    <glyph glyph-name="equal" unicode="=" horiz-adv-x="1128" 
d="M1010 395v-143h-889v143h889zM1010 698v-143h-889v143h889z" />
    <glyph glyph-name="greater" unicode="&#x3e;" horiz-adv-x="1048" 
d="M737 492l-651 217v168l879 -320v-131l-879 -320v168z" />
    <glyph glyph-name="question" unicode="?" horiz-adv-x="950" 
d="M440 1249q-141 0 -252 -192l-67 2l-33 155l6 9q49 41 156.5 84t208.5 43q178 0 266 -50q141 -80 141 -260q0 -57 -21.5 -107t-69.5 -96t-71.5 -65.5t-82.5 -62.5q-41 -31 -60.5 -50.5t-41 -70.5t-21.5 -121v-80q0 -10 -27 -20.5t-41 -10.5t-41 10.5t-27 20.5v84
q0 186 158 330q55 51 69.5 104t14.5 127q0 66 -49 141.5t-115 75.5zM272 98v11q39 98 142 139h8q104 -37 141 -139v-11q-20 -63 -53 -94t-88 -45h-8q-63 14 -94.5 43.5t-47.5 95.5z" />
    <glyph glyph-name="at" unicode="@" horiz-adv-x="2187" 
d="M1323 655q0 51 -29.5 84t-70.5 33q-139 0 -216 -132t-77 -304q0 -178 114 -178q55 0 119 58t101 179q59 197 59 260zM1434 154q0 -29 36 -29q31 0 79 27.5t99.5 78t87.5 138.5t36 190q0 129 -45.5 238.5t-117 181.5t-160.5 122t-174 72.5t-161 22.5q-121 0 -241.5 -48
t-222 -137t-165 -231.5t-63.5 -312.5q0 -119 45 -241t130 -229.5t229.5 -176t322.5 -68.5q131 0 276.5 40t235.5 114q33 -10 43 -80q-227 -174 -594 -174q-242 0 -453 101.5t-340 286.5t-129 413q0 158 76 310t202 269t302 188.5t365 71.5q348 0 601 -207.5t253 -496.5
q0 -213 -174.5 -381t-382.5 -168q-96 0 -138.5 37t-42.5 80q-55 -51 -138 -73t-140 -22q-84 0 -143.5 28t-87 73t-39 84t-11.5 78q0 215 161 370.5t345 155.5q76 0 151.5 -22.5t102.5 -55.5l76 68l55 -23l-121 -528q-26 -115 -26 -135z" />
    <glyph glyph-name="A" unicode="A" horiz-adv-x="1435" 
d="M843 563q-98 255 -181 449h-13l-191 -447q87 -4 214 -4q64 0 171 2zM410 449q-120 -296 -162 -455q-25 6 -92 6q-90 0 -115 -6q348 764 604 1354h184q418 -1065 562 -1354q-35 6 -187 6q-131 0 -166 -6q-49 177 -152 456q-124 3 -204 3q-52 0 -131 -1.5t-141 -2.5z" />
    <glyph glyph-name="B" unicode="B" horiz-adv-x="1382" 
d="M502 1126v-358h160q123 0 166.5 50t43.5 167q0 129 -46 181.5t-138 52.5q-119 0 -152.5 -20t-33.5 -73zM502 659v-460q0 -53 36.5 -75t141.5 -22q100 0 160.5 15.5t87 51.5t34 70.5t7.5 98.5q0 322 -277 321h-190zM362 1321q72 0 188 3t144 3q135 0 234.5 -29.5
t150.5 -79t75 -100.5t24 -108q0 -80 -62.5 -156t-148.5 -117q147 -43 239 -133t92 -227q0 -152 -139 -267.5t-420 -115.5q-96 0 -201.5 3t-175.5 3l-174 -6l-2 6q25 166 25 410v501q0 236 -25 410l4 6q102 -6 172 -6z" />
    <glyph glyph-name="C" unicode="C" horiz-adv-x="1415" 
d="M831 1348q111 0 222.5 -22.5t168.5 -46.5l56 -24l4 -6q-31 -131 -41 -266l-61 -2q-66 129 -154 190.5t-223 61.5q-68 0 -133.5 -28.5t-126 -89t-97 -172.5t-36.5 -259q0 -221 123.5 -401.5t287.5 -180.5q145 0 233.5 37t202.5 146l50 -70q-227 -236 -525 -235
q-262 0 -446 135q-127 94 -193.5 234t-66.5 296q0 168 66.5 312.5t187.5 238.5q194 152 501 152z" />
    <glyph glyph-name="D" unicode="D" horiz-adv-x="1579" 
d="M502 207q0 -55 45 -79t186 -24q117 0 188.5 16.5t128 67t80 145.5t23.5 249q0 113 -6 189.5t-33 168.5t-75 147.5t-139 93.5t-218 38q-80 0 -130 -26t-50 -77v-909zM358 1321q78 0 201 3t201 3q297 0 514 -206t217 -490q0 -145 -45 -259t-115.5 -182.5t-165 -113.5
t-184.5 -62.5t-184 -17.5q-111 0 -235 2t-204 2l-174 -6l-2 6q25 166 25 410v501q0 236 -25 410l4 6q102 -6 172 -6z" />
    <glyph glyph-name="E" unicode="E" horiz-adv-x="1196" 
d="M492 410q0 -205 16 -260q123 0 269.5 11t231.5 22l85 12l4 -9q-4 -33 -4 -112q0 -16 4 -74l-4 -6q-49 6 -123 6h-623l-174 -6l-2 6q25 166 25 410v501q0 236 -25 410l4 6q102 -6 172 -6h602q74 0 123 6l4 -6q-4 -57 -4 -72q0 -51 4 -84l-4 -8q-291 25 -565 25
q-16 -55 -16 -271v-149q223 0 464 20l7 -6q-6 -27 -6.5 -76t6.5 -77l-7 -7q-203 20 -464 21v-227z" />
    <glyph glyph-name="F" unicode="F" horiz-adv-x="1103" 
d="M948 1321q80 0 129 6l4 -6q-4 -57 -4 -72q0 -51 4 -84l-4 -8q-291 25 -565 25q-16 -55 -16 -271v-149q223 0 465 20l6 -6q-6 -27 -6 -76t6 -77l-6 -7q-203 20 -465 21v-227q0 -264 20 -410l-4 -6q-90 6 -160 6l-174 -6l-2 6q25 166 25 410v501q0 236 -25 410l4 6
q102 -6 172 -6h596z" />
    <glyph glyph-name="G" unicode="G" horiz-adv-x="1556" 
d="M1118 240q0 244 -20 389l4 6q98 -6 168 -6l149 6l2 -6q-20 -135 -20 -348q0 -86 20 -111v-6q-102 -86 -265 -135t-343 -49q-272 0 -448 118q-133 90 -209 231.5t-76 299.5q0 358 237 549q213 170 527 170q111 0 233.5 -22.5t189.5 -46.5l66 -24l4 -6q-31 -131 -41 -266
l-61 -2q-59 121 -176 186.5t-244 65.5q-201 0 -306.5 -153.5t-105.5 -409.5q0 -217 129.5 -397.5t327.5 -180.5q176 0 258 78v70z" />
    <glyph glyph-name="H" unicode="H" horiz-adv-x="1613" 
d="M1128 911q0 236 -24 410l4 6q98 -6 168 -6l170 6l2 -6q-25 -162 -25 -410v-501q0 -233 25 -410l-4 -6q-98 6 -168 6l-170 -6l-2 6q25 166 24 410v227h-622v-227q0 -233 24 -410l-4 -6q-98 6 -168 6l-170 -6l-2 6q25 166 25 410v501q0 236 -25 410l4 6q98 -6 168 -6l170 6
l2 -6q-25 -162 -24 -410v-168h622v168z" />
    <glyph glyph-name="I" unicode="I" horiz-adv-x="718" 
d="M217 911q0 236 -24 410l4 6q98 -6 168 -6l170 6l2 -6q-25 -162 -25 -410v-501q0 -233 25 -410l-5 -6q-98 6 -167 6l-170 -6l-2 6q25 166 24 410v501z" />
    <glyph glyph-name="J" unicode="J" horiz-adv-x="763" 
d="M287 317v594q0 264 -21 410l4 6q98 -6 168 -6l162 6l2 -6q-20 -135 -20 -410v-671q0 -178 -27 -267.5t-115 -197.5q-76 -92 -180 -139.5t-209 -47.5q-125 0 -153 19l-2 6q16 29 35.5 116t19.5 132l59 12q18 -35 72.5 -76t95.5 -41q59 0 88 58.5t29 136.5q0 80 -4 205.5
t-4 160.5z" />
    <glyph glyph-name="K" unicode="K" horiz-adv-x="1554" 
d="M217 911q0 236 -24 410l4 6q98 -6 168 -6l170 6l2 -6q-25 -162 -25 -410v-186q27 3 45 18q51 45 103.5 95.5t118 123t98 109.5t118.5 135.5t105 120.5q27 -6 162 -6q154 0 186 6q-506 -442 -643 -602v-4l663 -727q-39 6 -208 6q-154 0 -189 -6q-66 82 -189.5 238.5
t-208.5 263t-122 143.5q-13 10 -39 14v-243q0 -233 25 -410l-5 -6q-98 6 -167 6l-170 -6l-2 6q25 166 24 410v501z" />
    <glyph glyph-name="L" unicode="L" horiz-adv-x="1204" 
d="M506 430q0 -209 16 -264q123 0 269.5 11t231.5 23l85 11l4 -8q-4 -33 -4 -117q0 -29 4 -86l-4 -6q-49 6 -123 6h-623l-169 -6l-3 6q20 139 21 410v501q0 250 -23 410l5 6q92 -6 161 -6l170 6l2 -6q-20 -135 -20 -410v-481z" />
    <glyph glyph-name="M" unicode="M" horiz-adv-x="1906" 
d="M313 1356h166q346 -715 491 -986l531 986h162q18 -154 50 -447t56.5 -504.5t53.5 -410.5q-31 6 -166 6q-90 0 -121 -6q-54 651 -93 974q-14 -26 -71.5 -131.5t-77.5 -142.5t-69 -128.5t-75.5 -144.5t-66 -131.5t-72 -148.5t-63.5 -141h-112q-78 166 -452 898
q-9 -71 -40 -304t-46 -372t-15 -228q-23 6 -99 6q-78 0 -100 -6q118 647 229 1362z" />
    <glyph glyph-name="N" unicode="N" horiz-adv-x="1597" 
d="M207 911q6 221 -21 410l4 6q63 -6 134 -6l90 4l743 -909q16 -20 25.5 -27.5t14.5 0.5t5 37l-14 485q-8 272 -27 410l4 6q55 -6 105 -6l100 6l4 -6q-20 -135 -20 -410v-917q-68 6 -99 6q-23 0 -53.5 -2t-60.5 -2l-781 936l-7 17v-13v-16.5t-1 -20.5l-12 -489
q-6 -272 12 -410l-4 -6q-51 6 -100 6l-82 -6l-2 6q23 145 33 410z" />
    <glyph glyph-name="O" unicode="O" horiz-adv-x="1636" 
d="M786 1239q-350 0 -350 -569q0 -285 114 -433.5t306 -148.5q344 0 344 547q0 319 -98.5 461.5t-315.5 142.5zM1530 674q0 -309 -194.5 -501.5t-520.5 -192.5q-305 0 -507 184t-202 471q0 305 199 509t508 204q326 0 521.5 -184.5t195.5 -489.5z" />
    <glyph glyph-name="P" unicode="P" horiz-adv-x="1224" 
d="M481 1147v-461q39 -20 162 -20q102 0 161.5 71.5t59.5 220.5q0 168 -56 223.5t-163 55.5q-102 0 -133 -20.5t-31 -69.5zM190 911q0 236 -24 410l4 6q98 -6 168 -6q31 0 184.5 7t177.5 7q229 0 330 -69q143 -100 144 -271q0 -70 -28 -142.5t-85 -139t-159.5 -109.5
t-235.5 -43q-121 0 -185 21v-172q0 -233 25 -410l-4 -6q-94 6 -164 6l-170 -6l-2 6q25 166 24 410v501z" />
    <glyph glyph-name="Q" unicode="Q" horiz-adv-x="1636" 
d="M786 1239q-350 0 -350 -569q0 -285 114 -433.5t306 -148.5q344 0 344 547q0 319 -98.5 461.5t-315.5 142.5zM1209 76q1 -1 42.5 -25.5t50 -29.5t48 -27.5t57 -31t55.5 -27.5t64.5 -30.5t62.5 -26t70 -25.5v-13q-188 -98 -234 -135q-102 58 -212 140t-233 149
q-26 -5 -53 -8t-55 -4.5t-57 -1.5q-305 0 -507 184t-202 471q0 305 199 509t508 204q326 0 521.5 -184.5t195.5 -489.5q0 -199 -84 -354.5t-237 -243.5z" />
    <glyph glyph-name="R" unicode="R" horiz-adv-x="1406" 
d="M684 1233q-102 0 -142 -25.5t-40 -74.5v-412h110q59 0 92 2t72 10t58.5 24.5t38 46.5t25.5 75t7 108q0 88 -15.5 140.5t-51 74t-65.5 26.5t-89 5zM502 606v-196q0 -264 20 -410l-4 -6q-94 6 -164 6l-166 -6l-2 6q25 166 25 410v501q0 236 -25 410l4 6q102 -6 172 -6
q33 0 184.5 7t176.5 7q260 0 367 -69q133 -86 133 -277q0 -265 -313 -345q54 -72 221.5 -325.5t224.5 -318.5l-4 -6q-41 6 -191 6q-121 0 -160 -6q-35 106 -215 366q-15 22 -74.5 114.5t-93.5 133.5q-19 -1 -40.5 -1.5t-38 -0.5h-37.5z" />
    <glyph glyph-name="S" unicode="S" horiz-adv-x="1110" 
d="M518 86q190 0 191 211q0 59 -51.5 117.5t-127.5 97.5q-213 109 -297 183q-43 38 -73 77q-63 82 -64 221q0 158 131 256.5t312 98.5q111 0 215 -22.5t153 -46.5l49 -24l5 -6q-23 -72 -41 -245l-62 -3q-49 92 -131 169t-166 77q-82 0 -134 -59.5t-52 -138.5
q0 -53 15.5 -94.5t49 -71t63 -46t81.5 -40.5q84 -39 137 -69t123.5 -82t107.5 -118.5t37 -146.5q0 -164 -136 -282.5t-353 -118.5q-111 0 -221.5 22.5t-164.5 45.5l-55 24l-4 6q23 84 41 250l54 2q57 -88 168.5 -166t199.5 -78z" />
    <glyph glyph-name="T" unicode="T" horiz-adv-x="1232" 
d="M469 893q0 213 -16 268q-123 0 -227.5 -11t-147.5 -23l-43 -11l-4 8q8 68 0 197l4 6q49 -6 123 -6h917q74 0 123 6l4 -6q-8 -129 0 -197l-4 -8q-143 45 -418 45q-16 -55 -16 -268v-483q0 -264 20 -410l-4 -6q-94 6 -164 6l-165 -6l-2 6q20 139 20 410v483z" />
    <glyph glyph-name="U" unicode="U" horiz-adv-x="1472" 
d="M1120 911q0 264 -20 410l4 6q55 -6 104 -6l105 6l2 -6q-20 -135 -21 -410v-307q0 -625 -561 -624q-92 0 -179 21.5t-177 72.5t-145.5 156.5t-55.5 252.5v428q0 264 -20 410l4 6q90 -6 159 -6l170 6l3 -6q-20 -135 -21 -410v-360q0 -72 10.5 -136.5t39 -138t94 -118.5
t161.5 -45q106 0 178 36.5t107 106.5t47 142.5t12 168.5v344z" />
    <glyph glyph-name="V" unicode="V" horiz-adv-x="1376" 
d="M746 366q313 724 376 961q25 -6 119 -6q74 0 98 6q-397 -872 -604 -1347h-141q-68 162 -197 480t-224 546.5t-140 320.5q35 -6 207 -6q121 0 155 6q118 -410 351 -961z" />
    <glyph glyph-name="W" unicode="W" horiz-adv-x="2136" 
d="M1506 366q312 719 376 961q25 -6 105 -6q88 0 112 6q-397 -872 -604 -1347h-141q-83 197 -261 656l-294 -656h-185q-479 1141 -581 1347q35 -6 207 -6q111 0 145 6q13 -47 53 -159t136 -353t216 -518q8 18 30.5 70.5t33 77.5t31.5 73.5t35 80.5t32 74.5t34 81.5t31 76
q-48 122 -81.5 207.5t-67 165.5t-55.5 123q35 -6 166 -6q162 0 197 6q1 -5 14.5 -55t27 -99.5t42 -139.5t60 -182.5t81 -221.5t105.5 -263z" />
    <glyph glyph-name="X" unicode="X" horiz-adv-x="1316" 
d="M1241 -6q-37 6 -162 6q-166 0 -202 -6q-144 277 -266 484q-162 -253 -287 -484q-23 6 -107 6q-106 0 -129 -6q208 310 433 636q-159 262 -443 697q35 -6 198 -6q123 0 160 6q38 -80 98 -183.5t159 -264.5q166 241 278 448q23 -6 129 -6q84 0 106 6q-19 -27 -48.5 -67.5
t-59.5 -81t-69 -94t-76.5 -106t-83 -117t-87.5 -126.5q36 -58 119.5 -192.5t168.5 -271.5t171 -277z" />
    <glyph glyph-name="Y" unicode="Y" horiz-adv-x="1337" 
d="M832 623q1 -178 5.5 -367.5t10.5 -261.5q-33 6 -170 6q-135 0 -168 -6q13 131 14 569q-36 61 -142.5 228t-203.5 315.5t-145 220.5q35 -6 200 -6q125 0 160 6q30 -58 62 -117.5t68.5 -123t65 -111.5t73 -123.5t70.5 -119.5q209 333 335 595q25 -6 119 -6q70 0 96 6
q-42 -64 -91.5 -139.5t-83 -126t-71 -107.5t-64 -98.5t-53 -84t-48 -79t-39.5 -69.5z" />
    <glyph glyph-name="Z" unicode="Z" horiz-adv-x="1320" 
d="M426 129q119 0 323.5 11.5t350.5 21.5l145 10l4 -6q-4 -33 -4 -88q0 -20 4 -78l-4 -6q-49 6 -145 6h-785l-305 -6l-6 8q12 16 30.5 44t22.5 32l802 1115l-41 -3q-40 -2 -105 -6t-143.5 -8.5l-157 -9t-143.5 -8.5t-105 -6l-41 -3l-4 6q4 33 4 88q0 20 -4 78l4 6
q49 -6 125 -6h747q166 0 258 12q12 0 13 -12q0 -25 -62 -111q-778 -1077 -778 -1081z" />
    <glyph glyph-name="bracketleft" unicode="[" horiz-adv-x="837" 
d="M225 -119v1576h539v-68q-112 -7 -171.5 -16.5t-99.5 -32t-51.5 -56t-11.5 -93.5v-1044q0 -60 11.5 -93.5t51 -56t99 -32t172.5 -17.5v-67h-539z" />
    <glyph glyph-name="backslash" unicode="\" horiz-adv-x="641" 
d="M166 1430l471 -1528h-143l-471 1528h143z" />
    <glyph glyph-name="bracketright" unicode="]" horiz-adv-x="837" 
d="M612 1457v-1576h-538v69q213 13 273.5 48t60.5 149v1044q0 40 -5 67t-20 48.5t-36 34.5t-61.5 23t-88.5 15.5t-123 10.5v67h538z" />
    <glyph glyph-name="asciicircum" unicode="^" horiz-adv-x="1060" 
d="M530 1165l-165 -456h-156l260 622h127l258 -622h-158z" />
    <glyph glyph-name="underscore" unicode="_" horiz-adv-x="995" 
d="M987 -211v-125h-977v125h977z" />
    <glyph glyph-name="grave" unicode="`" horiz-adv-x="802" 
d="M406 1438l141 -254q18 -33 18 -54q0 -12 -16.5 -22t-32.5 -10q-31 0 -78 41l-248 215l5 22q16 18 68 42t102 24q25 0 41 -4z" />
    <glyph glyph-name="a" unicode="a" horiz-adv-x="1064" 
d="M471 684q-86 -200 -126 -297q14 0 67 -2t75 -2q38 0 105 2q-57 148 -121 299zM307 293q-76 -192 -104 -297q-18 4 -88 4q-84 0 -103 -4q227 494 434 975h195q49 -117 141 -347.5t161 -396.5t101 -231q-25 4 -188 4q-106 0 -131 -4q-31 112 -100 299q-80 2 -131 2
q-75 0 -187 -4z" />
    <glyph glyph-name="b" unicode="b" horiz-adv-x="1124" 
d="M459 831v-284h141q129 0 129 172q0 98 -41 134t-92 36q-96 0 -116.5 -9.5t-20.5 -48.5zM459 477v-346q0 -31 5 -43t34.5 -22.5t93.5 -10.5q96 0 137 65.5t41 149.5q0 104 -40 155.5t-130 51.5h-141zM315 942q283 6 340 6q350 0 351 -227q0 -59 -43 -119.5t-105 -89.5
q209 -47 209 -256q0 -102 -101.5 -181t-265.5 -79q-63 0 -211.5 2t-173.5 2l-157 -6l-2 6q20 123 20 367v208q0 244 -20 367l2 6q85 -6 157 -6z" />
    <glyph glyph-name="c" unicode="c" horiz-adv-x="995" 
d="M602 850q-104 0 -167.5 -93t-63.5 -257q0 -166 65 -279q27 -47 87.5 -83t105.5 -36q176 0 245 91h33q0 -45 11 -97q-72 -66 -144 -92.5t-184 -26.5q-117 0 -222.5 39t-160.5 103q-121 139 -121 323q0 248 141.5 384.5t356.5 136.5q76 0 187.5 -24t158.5 -50l4 -6
l-49 -213l-58 -2q-33 86 -97.5 134t-127.5 48z" />
    <glyph glyph-name="d" unicode="d" horiz-adv-x="1232" 
d="M459 158q0 -37 4 -51.5t38 -27.5t107 -13q154 0 213.5 74.5t59.5 285.5q0 92 -10.5 161.5t-41 141.5t-96 111t-164.5 39q-61 0 -85.5 -14.5t-24.5 -53.5v-653zM315 942q307 6 371 6q213 0 351.5 -140t138.5 -347q0 -129 -42 -223.5t-112 -144.5t-146.5 -73.5
t-160.5 -23.5q-96 0 -241.5 2t-158.5 2l-157 -6l-2 6q20 123 20 367v208q0 244 -20 367l2 6q85 -6 157 -6z" />
    <glyph glyph-name="e" unicode="e" horiz-adv-x="1079" 
d="M319 942h474q74 0 122 6l5 -6q-4 -57 -5 -70q0 -16 5 -49l-5 -8q-166 25 -440 25q-16 -55 -16 -260v-39q111 0 162 2t97 9t81 9l6 -6q-6 -27 -6 -63.5t6 -63.5l-6 -6q-203 20 -340 20v-73q0 -201 16 -256q123 0 237.5 6t169.5 12l54 6l4 -8q-4 -33 -4 -63q0 -8 4 -66
l-4 -6q-49 6 -123 6h-494l-161 -6l-2 6q20 123 20 367v208q0 244 -20 367l2 6q89 -6 161 -6z" />
    <glyph glyph-name="f" unicode="f" horiz-adv-x="1011" 
d="M459 367q0 -244 20 -367l-2 -6q-86 6 -162 6l-157 -6l-2 6q20 123 20 367v208q0 244 -20 367l2 6q90 -6 161 -6h474q74 0 122 6l5 -6q-4 -57 -5 -65q0 -20 5 -54l-5 -8q-166 25 -440 25q-16 -55 -16 -267v-32q111 0 162 2t97 9t81 9l6 -6q-6 -27 -6 -63.5t6 -63.5l-6 -6
q-203 20 -340 20v-75z" />
    <glyph glyph-name="g" unicode="g" horiz-adv-x="1179" 
d="M811 145q0 141 -20 287l4 6q88 -6 157 -6l127 6l2 -6q-20 -135 -20 -256v-2q0 -23 24 -47q-96 -68 -213.5 -107.5t-222.5 -39.5q-313 0 -434 133q-61 68 -97 160t-36 173q0 182 106 327q68 93 195 141.5t272 48.5q106 0 189.5 -16.5t110 -28t77.5 -37.5l4 -7l-47 -174
l-47 -2q-33 57 -61.5 91t-86 63t-132.5 29q-154 0 -216.5 -104.5t-62.5 -303.5q0 -94 21.5 -182t84 -159t156.5 -71q90 0 166 76v8z" />
    <glyph glyph-name="h" unicode="h" horiz-adv-x="1308" 
d="M1135 532v-122q0 -246 24 -410l-4 -6q-123 6 -162 6q-41 0 -164 -6l-2 6q25 156 25 410v20h-395v-20q0 -246 24 -410l-4 -6q-123 6 -162 6q-41 0 -163 -6l-2 6q25 156 24 410v122q0 246 -24 410l4 6q123 -6 161 -6q10 0 164 6l2 -6q-25 -156 -24 -410v-18h395v18
q0 246 -25 410l4 6q123 -6 162 -6q10 0 164 6l2 -6q-24 -156 -24 -410z" />
    <glyph glyph-name="i" unicode="i" horiz-adv-x="630" 
d="M457 532v-122q0 -246 24 -410l-4 -6q-123 6 -162 6q-41 0 -163 -6l-2 6q25 156 24 410v122q0 246 -24 410l4 6q123 -6 161 -6q10 0 164 6l2 -6q-24 -156 -24 -410z" />
    <glyph glyph-name="j" unicode="j" horiz-adv-x="743" 
d="M287 317v215q0 264 -21 410l4 6q123 -6 158 -6t158 6l4 -6q-20 -135 -21 -410v-292q0 -174 -26.5 -257t-112.5 -192q-70 -86 -167 -130t-195 -44q-119 0 -142 16l-2 7q14 27 32.5 108.5t18.5 122.5l56 10q16 -33 66 -70.5t89 -37.5q55 0 82 55t27 127q0 78 -4 202.5
t-4 159.5z" />
    <glyph glyph-name="k" unicode="k" horiz-adv-x="1220" 
d="M457 516q41 7 69 29q57 45 162 169t176 228q266 0 305 6l5 -6q-80 -68 -242 -251l-162 -183q63 -78 153.5 -189.5t146.5 -179t126 -139.5l-4 -6q-31 6 -213 6q-111 0 -164 -6q-49 70 -110.5 162t-104.5 149t-102 121q-16 14 -41 17v-33q0 -246 24 -410l-4 -6
q-123 6 -162 6q-41 0 -163 -6l-2 6q25 156 24 410v122q0 246 -24 410l4 6q123 -6 161 -6q10 0 164 6l2 -6q-25 -156 -24 -410v-16z" />
    <glyph glyph-name="l" unicode="l" horiz-adv-x="948" 
d="M457 367q0 -150 16 -205q123 0 232.5 6t158.5 12l49 6l5 -8q-4 -33 -5 -63q0 -57 5 -115l-5 -6q-49 6 -122 6h-478q-35 0 -157 -6l-2 6q20 123 20 367v208q0 244 -20 367l2 6q123 -6 155 -6q39 0 162 6l4 -6q-20 -129 -20 -367v-208z" />
    <glyph glyph-name="m" unicode="m" horiz-adv-x="1548" 
d="M242 963h250q158 -322 294 -576l312 576h229q98 -856 115 -967q-23 4 -238 4q-53 0 -76 -4q-39 462 -62 669q-240 -439 -341 -665h-51q-50 106 -335 664q-59 -543 -60 -668q-14 4 -60 4q-96 0 -113 -4q99 613 136 967z" />
    <glyph glyph-name="n" unicode="n" horiz-adv-x="1159" 
d="M147 649q0 195 -14 293l2 4q68 -4 119 -4l133 4l481 -625v328q0 195 -14 293l4 4q51 -4 88 -4l80 4v-4q-14 -109 -14 -293v-655q-53 6 -99 6q-51 0 -108 -6l-514 648v-1v-348q0 -195 14 -293l-2 -6q-45 6 -80 6l-88 -6l-2 6q14 90 14 293v356z" />
    <glyph glyph-name="o" unicode="o" horiz-adv-x="1212" 
d="M78 449q0 246 151.5 381t380.5 133q250 0 387.5 -138.5t137.5 -355.5q0 -225 -145.5 -357t-383.5 -132q-233 0 -380.5 127t-147.5 342zM596 852q-215 0 -215 -363q0 -72 10 -135t36 -126.5t79 -101.5t129 -38q80 0 138 79t58 253q0 231 -53 331.5t-182 100.5z" />
    <glyph glyph-name="p" unicode="p" horiz-adv-x="1054" 
d="M457 852v-375q45 -18 96 -18q94 0 135 48t41 165q0 121 -45 158.5t-141 37.5q-25 0 -86 -16zM457 367q0 -238 20 -367l-4 -6q-123 6 -158 6q-37 0 -159 -6l-2 6q20 123 20 367v208q0 244 -20 367l2 6q123 -6 157 -6q29 0 173.5 3t183.5 3q195 0 269.5 -74.5t74.5 -177.5
q0 -53 -14.5 -102t-50.5 -101.5t-109.5 -83t-175.5 -30.5q-160 0 -207 20v-32z" />
    <glyph glyph-name="q" unicode="q" horiz-adv-x="1212" 
d="M78 449q0 246 151.5 381t380.5 133q250 0 387.5 -138.5t137.5 -355.5q0 -132 -53 -234.5t-149 -166.5q214 -119 363 -177v-12q-106 -55 -204 -131q-26 19 -70.5 52.5t-60.5 45t-47 33.5t-53 35.5t-55 33t-75 42.5q-60 -11 -125 -10q-233 0 -380.5 127t-147.5 342z
M596 852q-215 0 -215 -363q0 -72 10 -135t36 -126.5t79 -101.5t129 -38q80 0 138 79t58 253q0 231 -53 331.5t-182 100.5z" />
    <glyph glyph-name="r" unicode="r" horiz-adv-x="1130" 
d="M457 852v-375q45 -18 96 -18q94 0 135 48t41 165q0 121 -45 158.5t-141 37.5q-25 0 -86 -16zM457 367q0 -238 20 -367l-4 -6q-123 6 -158 6q-37 0 -159 -6l-2 6q20 123 20 367v208q0 244 -20 367l2 6q123 -6 157 -6q29 0 173.5 3t183.5 3q195 0 269.5 -74.5t74.5 -177.5
q0 -25 -3.5 -49.5t-11 -52.5t-21 -54.5t-32.5 -50.5t-47.5 -45t-63.5 -35q31 -43 132.5 -196.5t152.5 -212.5l-4 -6q-39 6 -153 6q-137 0 -175 -6q-16 63 -112 209q-10 16 -52.5 82t-65.5 98q-76 6 -101 16v-32z" />
    <glyph glyph-name="s" unicode="s" horiz-adv-x="858" 
d="M111 248l61 2q86 -176 219 -176q61 0 97 39t36 112q0 68 -32.5 109t-118.5 65q-264 80 -264 295q0 129 104 199t254 70q76 0 164 -16.5t129 -41.5l4 -6l-39 -199l-55 -2q-25 59 -82.5 112.5t-124.5 53.5q-55 0 -84 -38t-29 -89q0 -55 28 -96t81 -53q322 -80 321 -320
q0 -123 -97 -207t-286 -84q-166 0 -319 60z" />
    <glyph glyph-name="t" unicode="t" horiz-adv-x="1040" 
d="M379 829q-115 0 -196 -5t-104 -11l-24 -6l-4 6q6 45 0 129l4 4q61 -4 113 -4h704q51 0 113 4l4 -4q-6 -84 0 -129l-4 -6q-68 23 -323 22v-460q0 -240 20 -369l-4 -6q-154 6 -162 6q-33 0 -156 -6l-2 6q20 123 21 369v460z" />
    <glyph glyph-name="u" unicode="u" horiz-adv-x="1187" 
d="M1028 573v-135q0 -225 -99.5 -341.5t-336.5 -116.5q-63 0 -129 14t-138.5 48t-118.5 108.5t-46 179.5v243q0 246 -21 369l2 6q123 -6 160 -6q35 0 158 6l4 -6q-20 -129 -21 -369v-159q0 -84 5.5 -136.5t22.5 -105.5t56 -77.5t101 -24.5q57 0 99 13t66.5 43t40 58.5
t21.5 76.5t8 81t2 90v141q0 246 -20 369l2 6q18 0 54 -3t46 -3t45 3t53 3l5 -6q-21 -129 -21 -369z" />
    <glyph glyph-name="v" unicode="v" horiz-adv-x="1079" 
d="M414 -6q-199 518 -400 954q35 -6 170 -6q131 0 160 6q108 -340 259 -693q111 255 241 693q20 -6 100 -6q100 0 121 6q-25 -55 -84 -186t-90 -203t-78 -179.5t-84 -200.5t-70 -185q-18 6 -110 6q-112 0 -135 -6z" />
    <glyph glyph-name="w" unicode="w" horiz-adv-x="1728" 
d="M418 -8q-215 559 -398 956q47 -8 170 -8q121 0 160 8q139 -440 260 -717q91 200 189 469q-27 64 -54 126.5t-55 123.5q47 -8 172 -8q123 0 162 8q131 -414 253 -698q51 120 131 374t105 324q27 -8 89 -8q86 0 112 8q-35 -78 -106.5 -234.5t-113.5 -250.5t-96.5 -226.5
t-94.5 -244.5q-20 6 -86 6q-115 0 -138 -6q-140 363 -204 523q-74 -177 -199 -525q-18 6 -133 6q-102 0 -125 -6z" />
    <glyph glyph-name="x" unicode="x" horiz-adv-x="1114" 
d="M403 457l-376 491q35 -6 188 -6q139 0 176 6q65 -108 228 -331q194 247 251 331q25 -6 78 -6q115 0 139 6l-387 -442q127 -182 381 -512q-33 6 -170 6q-154 0 -186 -6q-51 80 -234 340q-5 -8 -38.5 -55t-43.5 -60t-37.5 -52.5t-42.5 -60.5t-36.5 -52.5t-40.5 -59.5
q-23 6 -137 6q-53 0 -76 -6z" />
    <glyph glyph-name="y" unicode="y" horiz-adv-x="989" 
d="M625 480q1 -367 12 -486q-35 6 -145 6q-109 0 -146 -6q10 93 10 414q-227 384 -331 540q41 -6 96 -6q174 0 211 6q55 -108 214 -380q126 202 230 380q27 -6 115 -6q47 0 74 6q-280 -371 -340 -468z" />
    <glyph glyph-name="z" unicode="z" horiz-adv-x="1026" 
d="M420 121q119 0 254 5t212 11l77 6l4 -6q-4 -33 -4 -78q0 -2 4 -59l-4 -6q-49 6 -123 6h-611l-178 -6l-8 10q14 14 49 66l510 751q-113 -2 -235.5 -7t-190.5 -10l-67 -5l-7 6q6 49 7 78q0 10 -3.5 28.5t-3.5 30.5l7 6q49 -6 122 -6h562q29 0 69.5 4t72.5 7t36 3
q12 0 12 -14q-14 -14 -68 -92z" />
    <glyph glyph-name="braceleft" unicode="{" horiz-adv-x="628" 
d="M426 1191l16 -292q3 -57 -9.5 -98.5t-43 -68.5t-68.5 -44t-94 -30v-7q113 -40 167.5 -101t47.5 -164l-16 -262q-2 -36 3 -68.5t15.5 -58.5t26 -46.5t34.5 -34t40.5 -21t44.5 -7.5q5 -4 7 -9.5t2 -11.5t-2.5 -11.5t-6.5 -9.5q-83 0 -148 13t-119 44t-82 89t-24 141l12 299
q3 84 -44 133.5t-156 60.5q-13 11 -13.5 27.5t13.5 28.5q105 9 152.5 61.5t47.5 127.5l-12 324q-3 72 28.5 125.5t86.5 84t120 45t138 14.5q24 -21 0 -42q-38 -9 -61.5 -19.5t-52.5 -34t-41.5 -68.5t-8.5 -109z" />
    <glyph glyph-name="bar" unicode="|" horiz-adv-x="491" 
d="M328 -475h-164v1905h164v-1905z" />
    <glyph glyph-name="braceright" unicode="}" horiz-adv-x="628" 
d="M203 117l-17 292q-6 110 47.5 161.5t167.5 80.5v7q-113 40 -167 100.5t-48 163.5l17 262q7 106 -43 171t-121 65q-3 3 -5 6.5t-3 7t-1 7.5t1 8t3 7.5t5 5.5q83 0 147.5 -13t119 -43.5t82 -89t24.5 -140.5l-13 -300q-1 -20 1.5 -38.5t7.5 -35t13.5 -31t20.5 -27
t27.5 -22.5t35 -18t43.5 -13.5t52 -8.5q13 -11 13.5 -27.5t-13.5 -28.5q-105 -9 -153 -61.5t-48 -127.5l13 -324q3 -72 -28.5 -125.5t-86.5 -84t-120 -45t-138 -14.5q-6 5 -8 13t0 16t8 13q38 9 61.5 19.5t52 34.5t41.5 68.5t9 108.5z" />
    <glyph glyph-name="asciitilde" unicode="~" horiz-adv-x="919" 
d="M53 418q23 109 98.5 205t163.5 96q45 0 152 -66q106 -68 149 -67q111 0 164 119l74 -33q-41 -143 -115.5 -204.5t-130.5 -61.5q-57 0 -153 67q-96 66 -152 66q-106 0 -184 -148z" />
    <glyph glyph-name="uni00A0" unicode="&#xa0;" horiz-adv-x="512" 
 />
    <glyph glyph-name="exclamdown" unicode="&#xa1;" horiz-adv-x="552" 
d="M197 -27q-53 0 -100.5 40t-47.5 110q0 76 25.5 204t34.5 191q12 96 20 183t10 134.5t4 55.5q2 16 18.5 28.5t35 12.5t34 -8.5t17.5 -18.5q0 -10 6 -77.5t13 -152.5t16 -157q8 -70 31.5 -192.5t23.5 -202.5q0 -74 -47 -112t-94 -38zM340 1223v-11q-39 -98 -141 -139h-9
q-104 37 -141 139v11q20 63 53 94t88 45h9q63 -14 94 -43.5t47 -95.5z" />
    <glyph glyph-name="cent" unicode="&#xa2;" horiz-adv-x="983" 
d="M543 1184h90v-188q62 -5 128.5 -22.5t103.5 -36.5l4 -6l-44 -179l-52 -1q-54 136 -140 152v-640q131 7 197 88l30 -10q0 -14 1.5 -28t3.5 -23t4 -20q-35 -30 -69.5 -49.5t-75.5 -31.5t-91 -16v-198h-90v195q-199 7 -301 118q-48 52 -73.5 120.5t-25.5 152.5
q0 195 111.5 308t288.5 127v188zM543 283v612q-30 -10 -55.5 -30t-43.5 -48q-23 -37 -34 -89t-11 -119q0 -77 15 -141.5t40 -105.5q30 -48 89 -79z" />
    <glyph glyph-name="sterling" unicode="&#xa3;" horiz-adv-x="1034" 
d="M528 850l9 -131h249q16 0 17 -12v-62q0 -27 -55 -27h-211q0 -115 -33 -202.5t-64.5 -124.5t-83.5 -82h11q111 0 174 -24.5t106 -48t103 -23.5q168 0 237 84l41 -37q-43 -82 -127 -131t-192 -49q-104 0 -206 65.5t-200 65.5q-88 0 -88 -60q0 -39 -27.5 -60.5t-72.5 -21.5
q-35 0 -58.5 18.5t-23.5 45.5q0 51 129 112q84 63 108.5 165t24.5 274v34h-143q-14 0 -15 13v45q0 43 56 43h102v26q0 127 41 208t137 165q152 131 395 131q55 0 97 -18l2 -6q-18 -27 -43 -172l-45 -2q-2 2 -8.5 11t-7.5 11t-7 11.5t-9 11.5t-9.5 9t-11.5 10t-12 7t-13 6
t-15.5 3.5t-17.5 1.5q-104 0 -176 -70t-64 -213z" />
    <glyph glyph-name="currency" unicode="&#xa4;" horiz-adv-x="948" 
d="M233 614q0 -106 68 -179t170 -73t170 73t68 177q0 106 -71 179t-163 73q-100 0 -171 -73t-71 -177zM471 250q-113 0 -205 51q-16 -20 -51 -64t-43 -55l-125 121l109 88q-88 111 -88 221q0 117 90 226q-72 53 -107 84l113 116l102 -112q96 51 209 51q106 0 203 -53
q94 111 104 125l119 -125l-113 -93q86 -104 86 -219q0 -104 -83 -217q41 -33 106 -90l-111 -119l-104 119q-98 -55 -211 -55z" />
    <glyph glyph-name="yen" unicode="&#xa5;" 
d="M131 469q-12 0 -12 12v41q0 41 49 41h205q-28 48 -171 300t-184 315q33 -6 129 -7q123 0 156 7q146 -344 272 -545q31 46 58 92t60.5 115t46 95.5t57 126.5t51.5 116q23 -6 102 -7q59 0 84 7q-162 -257 -365 -615h281q16 0 17 -12v-55q0 -27 -52 -27h-250
q0 -32 0.5 -64.5t0.5 -64.5h284q16 0 17 -12v-54q0 -29 -52 -28h-247q4 -185 10 -252q-31 6 -123 6q-133 0 -164 -6q9 75 12 252h-272q-12 0 -12 12v41q0 41 49 41h236q0 41 1 129h-274z" />
    <glyph glyph-name="brokenbar" unicode="&#xa6;" horiz-adv-x="491" 
d="M328 1380v-741h-164v741h164zM328 330v-742h-164v742h164z" />
    <glyph glyph-name="section" unicode="&#xa7;" horiz-adv-x="1157" 
d="M384 789q-25 -30 -37.5 -73.5t-12.5 -90.5q0 -84 35 -144q14 -25 38.5 -49t43 -40.5t58.5 -40t54.5 -32t64.5 -33t56 -28.5q19 -10 104 -49q23 50 23 162q0 68 -27.5 125t-87 103t-101.5 71.5t-122 66.5q-48 26 -89 52zM304 847q-130 108 -130 210q0 51 23.5 108.5
t68.5 94.5q109 88 318 88q96 0 207.5 -43t160.5 -86l6 -11l-34 -168l-70 -4q-49 84 -129 147.5t-160 63.5q-59 0 -105 -46t-46 -103q0 -127 141 -185q500 -203 500 -464q0 -78 -50.5 -155t-121.5 -135q28 -19 47 -40q61 -68 61 -191q0 -111 -133 -204q-106 -76 -285 -76
q-96 0 -207.5 43t-160.5 86l-6 10l34 168l70 4q49 -84 129 -147.5t160 -63.5q152 0 151 150q0 145 -141 202q-74 31 -119 50.5t-126 65.5t-129 89t-87 107.5t-39 134.5q0 79 58 164.5t144 135.5z" />
    <glyph glyph-name="dieresis" unicode="&#xa8;" horiz-adv-x="817" 
d="M481 1174q0 53 38 91t91 38q51 0 88 -38t37 -91q0 -51 -36.5 -89t-88.5 -38q-53 0 -91 38t-38 89zM53 1174q0 53 37 91t88 38q53 0 91 -38t38 -91q0 -51 -38 -89t-91 -38q-51 0 -88 38t-37 89z" />
    <glyph glyph-name="copyright" unicode="&#xa9;" horiz-adv-x="1296" 
d="M920 442q-35 -53 -99.5 -92t-142.5 -39q-147 0 -243.5 78t-96.5 227q0 147 100.5 233.5t243.5 86.5q82 0 133 -15.5t70 -15.5l28 -160l-41 -8q-27 72 -69.5 101.5t-128.5 29.5q-76 0 -122 -48t-46 -183q0 -246 190 -246q127 0 185 82zM649.5 49q-239.5 0 -409.5 170
t-170 408q0 240 170 408.5t409.5 168.5t408.5 -169t169 -408.5t-169 -408.5t-408.5 -169zM649 1114q-205 0 -347 -142.5t-142 -344.5q0 -201 143 -344.5t346 -143.5q201 0 344.5 142.5t143.5 345t-142.5 345t-345.5 142.5z" />
    <glyph glyph-name="ordfeminine" unicode="&#xaa;" horiz-adv-x="608" 
d="M340 854v166q-154 -49 -154 -137q0 -80 68 -80q8 0 14 1t13.5 4t10.5 4t11 7t10 8l12.5 12.5zM268 1245q-31 0 -59 -16.5t-44.5 -35.5t-36.5 -49l-57 2l-22 94l4 5q10 9 35 19.5t56.5 19t68 14.5t65.5 6q218 0 218 -233v-143q0 -117 28 -117q14 0 33 12l21 -32
q-66 -57 -119 -58q-39 0 -70 19.5t-43 46.5q-74 -66 -133 -66q-86 0 -127 31q-51 37 -51 113q0 113 231 178l74 20q0 105 -16.5 137.5t-55.5 32.5z" />
    <glyph glyph-name="guillemotleft" unicode="&#xab;" horiz-adv-x="1136" 
d="M152 578v32q212 191 313 305q31 34 63 72q43 -14 60 -45q-123 -236 -213 -348q90 -113 213 -348q-16 -31 -60 -45q-68 80 -138.5 151.5t-104 103.5t-133.5 122zM537 578v32q212 191 313 305q31 34 63 72q43 -14 60 -45q-123 -236 -213 -348q90 -113 213 -348
q-16 -31 -60 -45q-68 80 -138 151.5t-104 103.5t-134 122z" />
    <glyph glyph-name="logicalnot" unicode="&#xac;" horiz-adv-x="1146" 
d="M948 272v439h-899v110h1051v-549h-152z" />
    <glyph glyph-name="uni00AD" unicode="&#xad;" horiz-adv-x="704" 
d="M571 453h-462q-12 0 -21.5 14t-9.5 31q0 27 17.5 65.5t33.5 38.5h469q29 0 29 -47q0 -20 -19 -61t-37 -41z" />
    <glyph glyph-name="registered" unicode="&#xae;" horiz-adv-x="1296" 
d="M866 762q0 -47 -29.5 -86t-58.5 -54l-28 -16l98 -168q37 -63 82 -63v-27q-27 -8 -47 -8q-102 0 -140 78l-98 160q-12 6 -55 6v-187q0 -14 14 -14h25q23 0 22 -12v-29q-111 4 -139 4l-115 -4v29q0 12 23 12h24q16 0 17 16v447q0 23 -8 22l-33 -2q-20 0 -21 13v26
q72 10 273 10q102 0 148 -47t46 -106zM739 762q0 113 -92 112q-41 0 -57 -6v-235q33 0 52.5 3t45 13t38.5 39t13 74zM649.5 49q-239.5 0 -409.5 170t-170 408q0 240 170 408.5t409.5 168.5t408.5 -169t169 -408.5t-169 -408.5t-408.5 -169zM649 1114q-205 0 -347 -142.5
t-142 -344.5q0 -201 143 -344.5t346 -143.5q201 0 344.5 142.5t143.5 345t-142.5 345t-345.5 142.5z" />
    <glyph glyph-name="macron" unicode="&#xaf;" horiz-adv-x="813" 
d="M645 1063h-500q-25 0 -24 41q0 20 14.5 45t30.5 25h500q29 0 28 -39q0 -20 -15.5 -46t-33.5 -26z" />
    <glyph glyph-name="degree" unicode="&#xb0;" horiz-adv-x="546" 
d="M401 1073q0 53 -33.5 97t-93 44t-94.5 -43t-35 -98q0 -53 36 -94t93.5 -41t92 41t34.5 94zM57 1075q0 90 63.5 153.5t154 63.5t152.5 -63.5t62 -153.5q0 -88 -62 -151.5t-152.5 -63.5t-154 63.5t-63.5 151.5z" />
    <glyph glyph-name="plusminus" unicode="&#xb1;" horiz-adv-x="1079" 
d="M594 711h348v-123h-348v-348h-123v348h-348v123h348v350h123v-350zM967 162v-144h-820v144h820z" />
    <glyph glyph-name="two.superior" unicode="&#xb2;" horiz-adv-x="696" 
d="M309 1397q-18 0 -33.5 -5.5t-30 -21.5t-21.5 -25.5t-24.5 -39t-23.5 -37.5l-57 2l-29 133l4 4q109 63 225 63q121 0 199 -54t78 -146q0 -61 -26.5 -103.5t-88.5 -93.5l-133 -112q-23 -18 -48.5 -51t-25.5 -48h109q25 0 219 10q-8 -29 -8 -77q0 -25 8 -54q-100 4 -205 4
q-8 0 -329 -4v4q0 51 34.5 100.5t133.5 137.5l98 84q37 33 54.5 71t19.5 61.5t2 72.5q0 51 -32 88t-69 37z" />
    <glyph glyph-name="three.superior" unicode="&#xb3;" horiz-adv-x="696" 
d="M283 795q51 0 93 32.5t42 122.5q0 131 -150 131q-37 0 -53 -2v64q197 10 197 153q0 45 -35 79t-74 34q-23 0 -41 -5t-30.5 -10t-25.5 -20.5t-18.5 -23t-18.5 -31t-19 -31.5h-58l-29 113l5 4q31 23 100.5 44t146.5 21q264 0 265 -155q0 -143 -150 -189v-4q82 -6 135 -48
t53 -120q0 -102 -95 -161.5t-242 -59.5q-143 0 -228 64l-6 6l31 112l57 3q8 -12 26.5 -46t27 -43.5t34 -21.5t60.5 -12z" />
    <glyph glyph-name="acute" unicode="&#xb4;" horiz-adv-x="698" 
d="M342 1374q12 4 33 4q43 0 83 -16t54 -33l20 -47l-245 -221q-39 -33 -88 -33q-12 0 -27.5 10.5t-15.5 18.5q0 25 16 49z" />
    <glyph glyph-name="uni00B5" unicode="&#xb5;" horiz-adv-x="1224" 
d="M418 508v-158q0 -205 108 -205q119 0 234 97v270q0 252 -15 367l5 6q70 -6 139 -6l158 6l2 -6q-18 -109 -19 -369v-346q0 -47 26.5 -60.5t94.5 -13.5q16 -14 20 -43q-88 -68 -243 -67q-68 0 -105 30.5t-57 108.5h-4q-131 -139 -295 -139q-94 0 -133 61q0 -262 106 -461
q-16 -20 -39 -65q-119 18 -211 79q-14 61 -28.5 300t-14.5 372v244q0 254 -14 369l4 6q70 -6 139 -6l158 6l2 -6q-18 -109 -18 -371z" />
    <glyph glyph-name="paragraph" unicode="&#xb6;" horiz-adv-x="1232" 
d="M752 1176v-1506q0 -78 82 -78q84 0 84 78v1506q0 78 -84 77q-82 1 -82 -77zM836 1321l202 6l2 -6q-20 -135 -20 -410v-977q0 -264 20 -409l-4 -6q-133 6 -202 6l-201 -6l-4 6q20 145 20 409v650q-27 -6 -65 -6q-227 0 -347 102t-120 305q0 135 100 237.5t289 102.5
q88 0 201 -2t129 -2z" />
    <glyph glyph-name="periodcentered" unicode="&#xb7;" horiz-adv-x="616" 
d="M309 391q-61 0 -100 41t-39 96.5t42 97.5t97 42q53 0 96.5 -41t43.5 -99q0 -55 -41.5 -96t-98.5 -41z" />
    <glyph glyph-name="cedilla" unicode="&#xb8;" horiz-adv-x="1107" 
d="M514 -188l-27 26l80 176h92l-41 -104q90 0 132.5 -40t42.5 -89q0 -68 -61.5 -112t-151.5 -44q-82 0 -158 35l31 74q70 -27 116 -27q37 0 65 18.5t28 45.5q0 20 -16.5 37.5t-43.5 17.5q-49 0 -88 -14z" />
    <glyph glyph-name="one.superior" unicode="&#xb9;" horiz-adv-x="696" 
d="M463 958q0 -123 16 -213l-2 -4q-57 4 -104 4l-103 -4l-2 4q14 74 15 213v289q0 70 -23 74q-14 2 -66.5 2t-78.5 2l-2 68q184 37 356 86q10 0 10 -6q-16 -131 -16 -185v-330z" />
    <glyph glyph-name="ordmasculine" unicode="&#xba;" horiz-adv-x="753" 
d="M80 879q0 127 88 203.5t213 76.5q94 0 156 -35q63 -37 101 -101.5t38 -131.5q0 -113 -80 -191.5t-225 -78.5q-133 0 -212 72.5t-79 185.5zM369 1100q-70 0 -89.5 -49.5t-19.5 -151.5q0 -45 4 -76.5t16.5 -65.5t41 -51.5t71.5 -17.5q49 0 77 35t28 135q0 129 -27.5 185.5
t-101.5 56.5z" />
    <glyph glyph-name="guillemotright" unicode="&#xbb;" horiz-adv-x="1136" 
d="M946 610v-32q-212 -191 -314 -305q-31 -34 -63 -72q-43 14 -59 45q123 236 213 348q-90 113 -213 348q16 31 59 45q68 -80 138.5 -151.5t104.5 -103.5t134 -122zM561 610v-32q-212 -191 -314 -305q-31 -34 -63 -72q-43 14 -59 45q123 236 213 348q-90 113 -213 348
q16 31 59 45q68 -80 138.5 -151.5t104.5 -103.5t134 -122z" />
    <glyph glyph-name="onequarter" unicode="&#xbc;" horiz-adv-x="1433" 
d="M1141 1210l84 -36l-938 -1342l-86 37zM1071 290l-194 -259h194v259zM1071 -59v4h-299l-24 24q51 76 192 257.5t174 226.5h103q25 0 24 -21v-401h123l-6 -86h-117v-4q0 -123 16 -213l-2 -4q-53 4 -100 4l-96 -4l-2 4q14 74 14 213zM457 858q0 -123 16 -213l-2 -4
q-57 4 -104 4l-103 -4l-2 4q14 74 14 213v289q0 70 -22 74q-14 2 -66.5 2t-78.5 2l-3 67q184 37 357 86q10 0 10 -6q-16 -131 -16 -184v-330z" />
    <glyph glyph-name="onehalf" unicode="&#xbd;" horiz-adv-x="1433" 
d="M1090 1251l86 -37l-940 -1341l-84 37zM1042 489q-18 0 -33.5 -5t-29.5 -21.5t-21.5 -25.5t-25 -38.5t-23.5 -38.5l-57 2l-29 134l4 4q109 63 226 63q121 0 198.5 -54t77.5 -147q0 -61 -26.5 -103t-88.5 -93l-133 -113q-23 -18 -48 -51t-25 -47h108q25 0 219 10
q-8 -29 -8 -78q0 -25 8 -53q-100 4 -205 4q-8 0 -329 -4v4q0 51 34.5 100.5t133.5 137.5l98 84q37 33 54.5 70.5t19.5 61t2 73.5q0 51 -32 87.5t-69 36.5zM461 858q0 -123 16 -213l-2 -4q-57 4 -104 4l-103 -4l-2 4q14 74 15 213v289q0 70 -23 74q-14 2 -66.5 2t-78.5 2
l-2 67q184 37 356 86q10 0 10 -6q-16 -131 -16 -184v-330z" />
    <glyph glyph-name="threequarters" unicode="&#xbe;" horiz-adv-x="1433" 
d="M1151 1251l84 -37l-938 -1341l-86 37zM279 690q51 0 93 33t42 123q0 131 -150 131q-37 0 -53 -2v63q197 10 197 154q0 45 -35 79t-74 34q-23 0 -41 -5.5t-30.5 -10.5t-26 -20.5t-18.5 -22.5t-18 -30.5t-20 -31.5h-57l-29 112l4 4q31 23 99.5 44.5t148.5 21.5
q264 0 264 -156q0 -143 -149 -188v-4q82 -6 135 -48t53 -120q0 -102 -95 -161.5t-243 -59.5q-143 0 -227 63l-6 6l31 113l57 2q8 -12 26.5 -46t27 -43t34 -21.5t60.5 -12.5zM1079 294l-194 -259h194v259zM1079 -55v4h-299l-24 24q51 76 192.5 257.5t173.5 226.5h103
q25 0 24 -21v-401h123l-6 -86h-117v-4q0 -123 17 -213l-2 -4q-53 4 -101 4l-96 -4l-2 4q14 74 14 213z" />
    <glyph glyph-name="questiondown" unicode="&#xbf;" horiz-adv-x="950" 
d="M391 74q141 0 252 192l68 -2l32 -155l-6 -9q-49 -41 -156.5 -84t-207.5 -43q-178 0 -267 50q-141 80 -141 260q0 57 21.5 107t69.5 96t72 65.5t83 62.5q41 31 60.5 50.5t41 70.5t21.5 121v80q0 10 26.5 20.5t41 10.5t41 -10.5t26.5 -20.5v-84q0 -186 -158 -330
q-55 -51 -69.5 -104t-14.5 -127q0 -66 49 -141.5t115 -75.5zM559 1225v-11q-39 -98 -141 -139h-8q-104 37 -142 139v11q20 63 53 94t89 45h8q63 -14 94 -43.5t47 -95.5z" />
    <glyph glyph-name="Agrave" unicode="&#xc0;" horiz-adv-x="1435" 
d="M453 1726l290 -202q31 -20 31 -49q0 -14 -10 -33t-23 -19q-16 0 -79 19l-312 90l-14 29q35 108 117 165zM843 563q-98 255 -181 449h-13l-191 -447q87 -4 214 -4q64 0 171 2zM410 449q-120 -296 -162 -455q-25 6 -92 6q-90 0 -115 -6q348 764 604 1354h184
q418 -1065 562 -1354q-35 6 -187 6q-131 0 -166 -6q-49 177 -152 456q-124 3 -204 3q-52 0 -131 -1.5t-141 -2.5z" />
    <glyph glyph-name="Aacute" unicode="&#xc1;" horiz-adv-x="1435" 
d="M1020 1726q82 -57 117 -165l-15 -29l-311 -90q-63 -18 -80 -19q-12 0 -22.5 18.5t-10.5 33.5q0 29 31 49zM843 563q-98 255 -181 449h-13l-191 -447q87 -4 214 -4q64 0 171 2zM410 449q-120 -296 -162 -455q-25 6 -92 6q-90 0 -115 -6q348 764 604 1354h184
q418 -1065 562 -1354q-35 6 -187 6q-131 0 -166 -6q-49 177 -152 456q-124 3 -204 3q-52 0 -131 -1.5t-141 -2.5z" />
    <glyph glyph-name="Acircumflex" unicode="&#xc2;" horiz-adv-x="1435" 
d="M1026 1464l-33 -63q-137 53 -268 115q-104 -49 -270 -115l-33 63q154 123 272 242h62q67 -72 270 -242zM843 563q-98 255 -181 449h-13l-191 -447q87 -4 214 -4q64 0 171 2zM410 449q-120 -296 -162 -455q-25 6 -92 6q-90 0 -115 -6q348 764 604 1354h184
q418 -1065 562 -1354q-35 6 -187 6q-131 0 -166 -6q-49 177 -152 456q-124 3 -204 3q-52 0 -131 -1.5t-141 -2.5z" />
    <glyph glyph-name="Atilde" unicode="&#xc3;" horiz-adv-x="1435" 
d="M864 1589q61 0 101 111l73 -19q-23 -104 -73 -165.5t-125 -61.5q-80 0 -142 57q-51 49 -114 50q-43 0 -65.5 -25t-35.5 -76l-73 15q53 223 180 223q82 0 162 -62q65 -47 112 -47zM843 563q-98 255 -181 449h-13l-191 -447q87 -4 214 -4q64 0 171 2zM410 449
q-120 -296 -162 -455q-25 6 -92 6q-90 0 -115 -6q348 764 604 1354h184q418 -1065 562 -1354q-35 6 -187 6q-131 0 -166 -6q-49 177 -152 456q-124 3 -204 3q-52 0 -131 -1.5t-141 -2.5z" />
    <glyph glyph-name="Adieresis" unicode="&#xc4;" horiz-adv-x="1435" 
d="M893 1440q0 49 34 82.5t83 33.5t83.5 -33.5t34.5 -82.5q0 -47 -35.5 -81t-82.5 -34q-49 0 -83 34t-34 81zM283 1440q0 49 34.5 82.5t84 33.5t83 -33.5t33.5 -82.5q0 -47 -33.5 -81t-83.5 -34q-47 0 -82.5 34t-35.5 81zM843 563q-98 255 -181 449h-13l-191 -447
q87 -4 214 -4q64 0 171 2zM410 449q-120 -296 -162 -455q-25 6 -92 6q-90 0 -115 -6q348 764 604 1354h184q418 -1065 562 -1354q-35 6 -187 6q-131 0 -166 -6q-49 177 -152 456q-124 3 -204 3q-52 0 -131 -1.5t-141 -2.5z" />
    <glyph glyph-name="Aring" unicode="&#xc5;" horiz-adv-x="1435" 
d="M739 1616q-53 0 -89 -39t-36 -92q0 -49 37 -90t88.5 -41t88 41t36.5 90q0 53 -37 92t-88 39zM520 1485q0 88 63.5 149.5t153.5 61.5t154.5 -60.5t64.5 -150.5q0 -14 -2 -28.5t-5.5 -27.5t-9 -26t-13 -24.5t-16 -22.5t-18.5 -20.5t-21 -18t-24 -15.5q405 -1028 544 -1308
q-35 6 -187 6q-131 0 -166 -6q-49 177 -152 456q-124 3 -204 3q-52 0 -131 -1.5t-141 -2.5q-120 -296 -162 -455q-25 6 -92 6q-90 0 -115 -6q341 747 585 1309q-48 28 -77 76t-29 106zM843 563q-98 255 -181 449h-13l-191 -447q87 -4 214 -4q64 0 171 2z" />
    <glyph glyph-name="AE" unicode="&#xc6;" horiz-adv-x="1724" 
d="M420 437q-134 -274 -199 -443q-25 6 -92 6q-106 0 -131 -6q370 709 733 1332l72 -5h98h78h500q74 0 123 6l4 -6q-4 -57 -4 -84q0 -41 4 -74l-4 -8q-261 21 -478 21h-63q1 -42 2 -96.5t1.5 -98t1.5 -110t1 -107.5q199 2 418 20l6 -6q-6 -27 -6 -67q0 -59 6 -88l-6 -7
q-80 8 -196.5 13.5t-219.5 6.5q5 -328 15 -491q58 2 135 7t145 11t127.5 11t95.5 9l35 3l4 -8q-4 -33 -4 -88q0 -33 4 -90l-4 -6q-49 6 -123 6h-403h-24h-171q-78 0 -113 -6q0 15 2 446h-73q-139 0 -297 -3zM790 552q1 148 1 286t1 255h-25q-70 -124 -144.5 -263
t-143.5 -276q26 0 76 -1t89 -1.5t63 -0.5h10.5h11h11.5h12h12.5t13 0.5t12.5 0.5z" />
    <glyph glyph-name="Ccedilla" unicode="&#xc7;" horiz-adv-x="1415" 
d="M647 -197l-26 27l70 154q-208 22 -355 131q-127 94 -193.5 234t-66.5 296q0 168 66.5 312.5t187.5 238.5q195 152 501 152q111 0 222.5 -22.5t168.5 -46.5l56 -24l4 -6q-31 -131 -41 -266l-61 -2q-66 129 -154 190.5t-223 61.5q-68 0 -133.5 -28.5t-126 -89t-97 -172.5
t-36.5 -259q0 -221 123.5 -401.5t287.5 -180.5q145 0 233.5 37t202.5 146l50 -70q-227 -236 -525 -235l-30 -78q90 0 132 -40t42 -89q0 -68 -61.5 -112t-151.5 -44q-82 0 -158 35l31 74q70 -27 116 -27q37 0 65 18.5t28 44.5q0 20 -16.5 38t-43.5 18q-49 -1 -88 -15z" />
    <glyph glyph-name="Egrave" unicode="&#xc8;" horiz-adv-x="1196" 
d="M453 1726l290 -202q31 -20 31 -49q0 -14 -10 -33t-23 -19q-16 0 -79 19l-312 90l-14 29q35 108 117 165zM492 410q0 -205 16 -260q123 0 269.5 11t231.5 22l85 12l4 -9q-4 -33 -4 -112q0 -16 4 -74l-4 -6q-49 6 -123 6h-623l-174 -6l-2 6q25 166 25 410v501
q0 236 -25 410l4 6q102 -6 172 -6h602q74 0 123 6l4 -6q-4 -57 -4 -72q0 -51 4 -84l-4 -8q-291 25 -565 25q-16 -55 -16 -271v-149q223 0 464 20l7 -6q-6 -27 -6.5 -76t6.5 -77l-7 -7q-203 20 -464 21v-227z" />
    <glyph glyph-name="Eacute" unicode="&#xc9;" horiz-adv-x="1196" 
d="M713 1726q82 -57 116 -165l-14 -29l-311 -90q-63 -18 -80 -19q-12 0 -22.5 18.5t-10.5 33.5q0 29 31 49zM492 410q0 -205 16 -260q123 0 269.5 11t231.5 22l85 12l4 -9q-4 -33 -4 -112q0 -16 4 -74l-4 -6q-49 6 -123 6h-623l-174 -6l-2 6q25 166 25 410v501
q0 236 -25 410l4 6q102 -6 172 -6h602q74 0 123 6l4 -6q-4 -57 -4 -72q0 -51 4 -84l-4 -8q-291 25 -565 25q-16 -55 -16 -271v-149q223 0 464 20l7 -6q-6 -27 -6.5 -76t6.5 -77l-7 -7q-203 20 -464 21v-227z" />
    <glyph glyph-name="Ecircumflex" unicode="&#xca;" horiz-adv-x="1196" 
d="M944 1464l-33 -63q-137 53 -268 115q-104 -49 -270 -115l-33 63q154 123 272 242h62q67 -72 270 -242zM492 410q0 -205 16 -260q123 0 269.5 11t231.5 22l85 12l4 -9q-4 -33 -4 -112q0 -16 4 -74l-4 -6q-49 6 -123 6h-623l-174 -6l-2 6q25 166 25 410v501q0 236 -25 410
l4 6q102 -6 172 -6h602q74 0 123 6l4 -6q-4 -57 -4 -72q0 -51 4 -84l-4 -8q-291 25 -565 25q-16 -55 -16 -271v-149q223 0 464 20l7 -6q-6 -27 -6.5 -76t6.5 -77l-7 -7q-203 20 -464 21v-227z" />
    <glyph glyph-name="Edieresis" unicode="&#xcb;" horiz-adv-x="1196" 
d="M711 1614q0 53 37.5 91t91 38t91.5 -38t38 -91q0 -51 -38 -89t-91.5 -38t-91 37t-37.5 90zM260 1614q0 53 38 91t91 38t91 -38t38 -91t-38 -90t-91 -37t-91 37t-38 90zM492 410q0 -205 16 -260q123 0 269.5 11t231.5 22l85 12l4 -9q-4 -33 -4 -112q0 -16 4 -74l-4 -6
q-49 6 -123 6h-623l-174 -6l-2 6q25 166 25 410v501q0 236 -25 410l4 6q102 -6 172 -6h602q74 0 123 6l4 -6q-4 -57 -4 -72q0 -51 4 -84l-4 -8q-291 25 -565 25q-16 -55 -16 -271v-149q223 0 464 20l7 -6q-6 -27 -6.5 -76t6.5 -77l-7 -7q-203 20 -464 21v-227z" />
    <glyph glyph-name="Igrave" unicode="&#xcc;" horiz-adv-x="718" 
d="M268 1726l291 -202q31 -20 31 -49q0 -14 -10.5 -33t-22.5 -19q-16 0 -80 19l-311 90l-14 29q34 108 116 165zM217 911q0 236 -24 410l4 6q98 -6 168 -6l170 6l2 -6q-25 -162 -25 -410v-501q0 -233 25 -410l-5 -6q-98 6 -167 6l-170 -6l-2 6q25 166 24 410v501z" />
    <glyph glyph-name="Iacute" unicode="&#xcd;" horiz-adv-x="718" 
d="M467 1726q82 -57 117 -165l-15 -29l-311 -90q-63 -18 -80 -19q-12 0 -22.5 18.5t-10.5 33.5q0 29 31 49zM217 911q0 236 -24 410l4 6q98 -6 168 -6l170 6l2 -6q-25 -162 -25 -410v-501q0 -233 25 -410l-5 -6q-98 6 -167 6l-170 -6l-2 6q25 166 24 410v501z" />
    <glyph glyph-name="Icircumflex" unicode="&#xce;" horiz-adv-x="718" 
d="M664 1464l-33 -63q-137 53 -269 115q-104 -49 -270 -115l-33 63q154 123 273 242h61q68 -72 271 -242zM217 911q0 236 -24 410l4 6q98 -6 168 -6l170 6l2 -6q-25 -162 -25 -410v-501q0 -233 25 -410l-5 -6q-98 6 -167 6l-170 -6l-2 6q25 166 24 410v501z" />
    <glyph glyph-name="Idieresis" unicode="&#xcf;" horiz-adv-x="718" 
d="M444 1614q0 53 38 91t91.5 38t91 -38t37.5 -91q0 -51 -37.5 -89t-91 -38t-91.5 37t-38 90zM-6 1614q0 53 38 91t91 38t91 -38t38 -91t-38 -90t-91 -37t-91 37t-38 90zM217 911q0 236 -24 410l4 6q98 -6 168 -6l170 6l2 -6q-25 -162 -25 -410v-501q0 -233 25 -410l-5 -6
q-98 6 -167 6l-170 -6l-2 6q25 166 24 410v501z" />
    <glyph glyph-name="Eth" unicode="&#xd0;" horiz-adv-x="1579" 
d="M502 207q0 -55 45 -79t186 -24q117 0 188.5 16.5t128 67t80 145.5t23.5 249q0 113 -6 189.5t-33 168.5t-75 147.5t-139 93.5t-218 38q-80 0 -130 -26t-50 -77v-425q147 2 252 7l-21 -125q-100 5 -231 8v-374zM358 1321q78 0 201 3t201 3q297 0 514 -206t217 -490
q0 -145 -45 -259t-115.5 -182.5t-165 -113.5t-184.5 -62.5t-184 -17.5q-111 0 -235 2t-204 2l-174 -6l-2 6q25 166 25 410v170q-20 0 -39 -0.5l-38 -1t-37 -1t-35 -1t-33.5 -1.5t-30.5 -2l20 125q73 -4 193 -6v219q0 236 -25 410l4 6q102 -6 172 -6z" />
    <glyph glyph-name="Ntilde" unicode="&#xd1;" horiz-adv-x="1597" 
d="M948 1597q59 0 101 111l73 -18q-23 -104 -73 -166t-125 -62q-80 0 -142 58q-53 49 -114 49q-43 0 -65.5 -24.5t-35.5 -76.5l-73 15q53 223 180 223q82 0 162 -61q65 -48 112 -48zM207 911q6 221 -21 410l4 6q63 -6 134 -6l90 4l743 -909q16 -20 25.5 -27.5t14.5 0.5t5 37
l-14 485q-8 272 -27 410l4 6q55 -6 105 -6l100 6l4 -6q-20 -135 -20 -410v-917q-68 6 -99 6q-23 0 -53.5 -2t-60.5 -2l-781 936l-7 17v-13v-16.5t-1 -20.5l-12 -489q-6 -272 12 -410l-4 -6q-51 6 -100 6l-82 -6l-2 6q23 145 33 410z" />
    <glyph glyph-name="Ograve" unicode="&#xd2;" horiz-adv-x="1636" 
d="M637 1726l291 -202q31 -20 30 -49q0 -14 -10 -33t-22 -19q-16 0 -80 19l-311 90l-15 29q35 108 117 165zM786 1239q-350 0 -350 -569q0 -285 114 -433.5t306 -148.5q344 0 344 547q0 319 -98.5 461.5t-315.5 142.5zM1530 674q0 -309 -194.5 -501.5t-520.5 -192.5
q-305 0 -507 184t-202 471q0 305 199 509t508 204q326 0 521.5 -184.5t195.5 -489.5z" />
    <glyph glyph-name="Oacute" unicode="&#xd3;" horiz-adv-x="1636" 
d="M897 1726q82 -57 117 -165l-15 -29l-311 -90q-63 -18 -80 -19q-12 0 -22.5 18.5t-10.5 33.5q0 29 31 49zM786 1239q-350 0 -350 -569q0 -285 114 -433.5t306 -148.5q344 0 344 547q0 319 -98.5 461.5t-315.5 142.5zM1530 674q0 -309 -194.5 -501.5t-520.5 -192.5
q-305 0 -507 184t-202 471q0 305 199 509t508 204q326 0 521.5 -184.5t195.5 -489.5z" />
    <glyph glyph-name="Ocircumflex" unicode="&#xd4;" horiz-adv-x="1636" 
d="M1108 1464l-33 -63q-137 53 -268 115q-104 -49 -270 -115l-33 63q154 123 272 242h62q67 -72 270 -242zM786 1239q-350 0 -350 -569q0 -285 114 -433.5t306 -148.5q344 0 344 547q0 319 -98.5 461.5t-315.5 142.5zM1530 674q0 -309 -194.5 -501.5t-520.5 -192.5
q-305 0 -507 184t-202 471q0 305 199 509t508 204q326 0 521.5 -184.5t195.5 -489.5z" />
    <glyph glyph-name="Otilde" unicode="&#xd5;" horiz-adv-x="1636" 
d="M965 1597q59 0 100 111l74 -18q-23 -104 -73 -166t-126 -62q-80 0 -141 58q-53 49 -115 49q-43 0 -65.5 -24.5t-34.5 -76.5l-74 15q53 223 180 223q82 0 162 -61q66 -48 113 -48zM786 1239q-350 0 -350 -569q0 -285 114 -433.5t306 -148.5q344 0 344 547
q0 319 -98.5 461.5t-315.5 142.5zM1530 674q0 -309 -194.5 -501.5t-520.5 -192.5q-305 0 -507 184t-202 471q0 305 199 509t508 204q326 0 521.5 -184.5t195.5 -489.5z" />
    <glyph glyph-name="Odieresis" unicode="&#xd6;" horiz-adv-x="1636" 
d="M1155 1440q0 49 35 82.5t84 33.5q47 0 82 -33.5t35 -82.5q0 -47 -35 -81t-82 -34q-49 0 -84 34t-35 81zM250 1440q0 49 34.5 82.5t82.5 33.5q49 0 83.5 -33.5t34.5 -82.5q0 -47 -34.5 -81t-83.5 -34q-47 0 -82 34t-35 81zM786 1239q-350 0 -350 -569q0 -285 114 -433.5
t306 -148.5q344 0 344 547q0 319 -98.5 461.5t-315.5 142.5zM1530 674q0 -309 -194.5 -501.5t-520.5 -192.5q-305 0 -507 184t-202 471q0 305 199 509t508 204q326 0 521.5 -184.5t195.5 -489.5z" />
    <glyph glyph-name="multiply" unicode="&#xd7;" horiz-adv-x="1116" 
d="M309 823l248 -245l248 245l100 -102l-246 -246l246 -246l-100 -100l-248 246l-246 -246l-100 100l246 246l-248 248z" />
    <glyph glyph-name="Oslash" unicode="&#xd8;" horiz-adv-x="1636" 
d="M231 -86l-90 74l154 188q-188 183 -189 459q0 305 199 509t508 204q209 0 369 -80l98 121l90 -70l-89 -111q120 -89 184.5 -226t64.5 -308q0 -309 -194.5 -501.5t-520.5 -192.5q-246 0 -430 123zM786 1239q-350 0 -350 -569q0 -156 36 -275l601 738q-98 106 -287 106z
M1137 1032l-613 -757q111 -187 332 -187q344 0 344 547q0 256 -63 397z" />
    <glyph glyph-name="Ugrave" unicode="&#xd9;" horiz-adv-x="1472" 
d="M637 1726l291 -202q31 -20 30 -49q0 -14 -10 -33t-22 -19q-16 0 -80 19l-311 90l-15 29q35 108 117 165zM1120 911q0 264 -20 410l4 6q55 -6 104 -6l105 6l2 -6q-20 -135 -21 -410v-307q0 -625 -561 -624q-92 0 -179 21.5t-177 72.5t-145.5 156.5t-55.5 252.5v428
q0 264 -20 410l4 6q90 -6 159 -6l170 6l3 -6q-20 -135 -21 -410v-360q0 -72 10.5 -136.5t39 -138t94 -118.5t161.5 -45q106 0 178 36.5t107 106.5t47 142.5t12 168.5v344z" />
    <glyph glyph-name="Uacute" unicode="&#xda;" horiz-adv-x="1472" 
d="M918 1726q82 -57 116 -165l-14 -29l-311 -90q-63 -18 -80 -19q-12 0 -22.5 18.5t-10.5 33.5q0 29 31 49zM1120 911q0 264 -20 410l4 6q55 -6 104 -6l105 6l2 -6q-20 -135 -21 -410v-307q0 -625 -561 -624q-92 0 -179 21.5t-177 72.5t-145.5 156.5t-55.5 252.5v428
q0 264 -20 410l4 6q90 -6 159 -6l170 6l3 -6q-20 -135 -21 -410v-360q0 -72 10.5 -136.5t39 -138t94 -118.5t161.5 -45q106 0 178 36.5t107 106.5t47 142.5t12 168.5v344z" />
    <glyph glyph-name="Ucircumflex" unicode="&#xdb;" horiz-adv-x="1472" 
d="M1087 1464l-32 -63q-137 53 -269 115q-104 -49 -270 -115l-33 63q154 123 273 242h61q67 -72 270 -242zM1120 911q0 264 -20 410l4 6q55 -6 104 -6l105 6l2 -6q-20 -135 -21 -410v-307q0 -625 -561 -624q-92 0 -179 21.5t-177 72.5t-145.5 156.5t-55.5 252.5v428
q0 264 -20 410l4 6q90 -6 159 -6l170 6l3 -6q-20 -135 -21 -410v-360q0 -72 10.5 -136.5t39 -138t94 -118.5t161.5 -45q106 0 178 36.5t107 106.5t47 142.5t12 168.5v344z" />
    <glyph glyph-name="Udieresis" unicode="&#xdc;" horiz-adv-x="1472" 
d="M858 1460q0 49 34 83t83 34q47 0 82 -34t35 -83q0 -47 -35 -80.5t-82 -33.5q-49 0 -83 33.5t-34 80.5zM483 1460q0 49 35 83t82 34q49 0 83 -34t34 -83q0 -47 -34 -80.5t-83 -33.5q-47 0 -82 33.5t-35 80.5zM1120 911q0 264 -20 410l4 6q55 -6 104 -6l105 6l2 -6
q-20 -135 -21 -410v-307q0 -625 -561 -624q-92 0 -179 21.5t-177 72.5t-145.5 156.5t-55.5 252.5v428q0 264 -20 410l4 6q90 -6 159 -6l170 6l3 -6q-20 -135 -21 -410v-360q0 -72 10.5 -136.5t39 -138t94 -118.5t161.5 -45q106 0 178 36.5t107 106.5t47 142.5t12 168.5v344z
" />
    <glyph glyph-name="Yacute" unicode="&#xdd;" horiz-adv-x="1337" 
d="M856 1726q82 -57 117 -165l-15 -29l-311 -90q-63 -18 -80 -19q-12 0 -22 18.5t-10 33.5q0 29 30 49zM832 623q1 -178 5.5 -367.5t10.5 -261.5q-33 6 -170 6q-135 0 -168 -6q13 131 14 569q-36 61 -142.5 228t-203.5 315.5t-145 220.5q35 -6 200 -6q125 0 160 6
q30 -58 62 -117.5t68.5 -123t65 -111.5t73 -123.5t70.5 -119.5q209 333 335 595q25 -6 119 -6q70 0 96 6q-42 -64 -91.5 -139.5t-83 -126t-71 -107.5t-64 -98.5t-53 -84t-48 -79t-39.5 -69.5z" />
    <glyph glyph-name="Thorn" unicode="&#xde;" horiz-adv-x="1263" 
d="M195 911q0 236 -25 410l4 6q98 -6 168 -6l170 6l2 -6q-16 -104 -21 -247q72 4 197 3q264 0 384 -105.5t120 -269.5q0 -180 -135 -290.5t-397 -110.5q-124 0 -172 13q4 -174 24 -314l-4 -6q-98 6 -168 6l-170 -6l-2 6q25 166 25 410v501zM489 412q10 -3 24 -4.5t38 -3
t59 -1.5q256 0 256 299q0 139 -60.5 206t-158.5 67q-78 0 -157 -21q0 -14 -1 -43v-499z" />
    <glyph glyph-name="germandbls" unicode="&#xdf;" horiz-adv-x="1226" 
d="M745 -20q-68 0 -133 21.5t-90 35.5l-2 6q14 25 39 119l23 2q18 -33 69 -64.5t94 -31.5q33 0 57.5 6t51.5 24.5t41 59.5t14 102q0 27 -10 59.5t-35.5 74.5t-84 70t-140.5 28q-27 0 -47 -5l-8 37q213 285 213 316q0 16 -48.5 27.5t-99.5 11.5q-133 0 -183 -74t-50 -281
v-153q0 -233 20 -371l-4 -6q-72 6 -141 6l-160 -6l-2 6q20 129 21 367v120q0 223 132 349.5t396 126.5q78 0 221 -15.5t201 -36.5v-32l-221 -320q-6 -6 -6.5 -14t10.5 -8q131 -6 205.5 -83t74.5 -188q0 -59 -31.5 -122.5t-89.5 -104.5q-84 -59 -297 -59z" />
    <glyph glyph-name="agrave" unicode="&#xe0;" horiz-adv-x="1064" 
d="M557 1382l141 -254q18 -33 19 -53q0 -12 -16.5 -22.5t-32.5 -10.5q-31 0 -78 41l-248 215l4 23q16 18 68.5 41.5t101.5 23.5q25 0 41 -4zM471 684q-86 -200 -126 -297q14 0 67 -2t75 -2q38 0 105 2q-57 148 -121 299zM307 293q-76 -192 -104 -297q-18 4 -88 4
q-84 0 -103 -4q227 494 434 975h195q49 -117 141 -347.5t161 -396.5t101 -231q-25 4 -188 4q-106 0 -131 -4q-31 112 -100 299q-80 2 -131 2q-75 0 -187 -4z" />
    <glyph glyph-name="aacute" unicode="&#xe1;" horiz-adv-x="1064" 
d="M541 1380q12 4 32 4q43 0 83 -16t55 -33l20 -47l-246 -221q-39 -33 -88 -33q-12 0 -27.5 10.5t-15.5 18.5q0 25 17 49zM471 684q-86 -200 -126 -297q14 0 67 -2t75 -2q38 0 105 2q-57 148 -121 299zM307 293q-76 -192 -104 -297q-18 4 -88 4q-84 0 -103 -4
q227 494 434 975h195q49 -117 141 -347.5t161 -396.5t101 -231q-25 4 -188 4q-106 0 -131 -4q-31 112 -100 299q-80 2 -131 2q-75 0 -187 -4z" />
    <glyph glyph-name="acircumflex" unicode="&#xe2;" horiz-adv-x="1064" 
d="M823 1098l-55 -49q-158 76 -242 157q-80 -74 -239 -157l-56 49q119 123 159 170t97 129h82q47 -68 68.5 -96.5t66.5 -78.5t119 -124zM471 684q-86 -200 -126 -297q14 0 67 -2t75 -2q38 0 105 2q-57 148 -121 299zM307 293q-76 -192 -104 -297q-18 4 -88 4q-84 0 -103 -4
q227 494 434 975h195q49 -117 141 -347.5t161 -396.5t101 -231q-25 4 -188 4q-106 0 -131 -4q-31 112 -100 299q-80 2 -131 2q-75 0 -187 -4z" />
    <glyph glyph-name="atilde" unicode="&#xe3;" horiz-adv-x="1064" 
d="M694 1188q59 0 101 110l73 -18q-23 -104 -73 -165.5t-125 -61.5q-80 0 -142 57q-53 49 -114 49q-43 0 -65.5 -24.5t-35.5 -75.5l-73 14q53 223 180 223q82 0 162 -61q65 -47 112 -47zM471 684q-86 -200 -126 -297q14 0 67 -2t75 -2q38 0 105 2q-57 148 -121 299zM307 293
q-76 -192 -104 -297q-18 4 -88 4q-84 0 -103 -4q227 494 434 975h195q49 -117 141 -347.5t161 -396.5t101 -231q-25 4 -188 4q-106 0 -131 -4q-31 112 -100 299q-80 2 -131 2q-75 0 -187 -4z" />
    <glyph glyph-name="adieresis" unicode="&#xe4;" horiz-adv-x="1064" 
d="M618 1190q0 53 38 91t92 38q51 0 87.5 -38t36.5 -91q0 -51 -36.5 -89t-87.5 -38q-53 0 -91.5 38t-38.5 89zM190 1190q0 53 37 91t88 38q53 0 91 -38t38 -91q0 -51 -37.5 -89t-91.5 -38q-51 0 -88 38t-37 89zM471 684q-86 -200 -126 -297q14 0 67 -2t75 -2q38 0 105 2
q-57 148 -121 299zM307 293q-76 -192 -104 -297q-18 4 -88 4q-84 0 -103 -4q227 494 434 975h195q49 -117 141 -347.5t161 -396.5t101 -231q-25 4 -188 4q-106 0 -131 -4q-31 112 -100 299q-80 2 -131 2q-75 0 -187 -4z" />
    <glyph glyph-name="aring" unicode="&#xe5;" horiz-adv-x="1064" 
d="M543 1350q-53 0 -89 -39t-36 -92q0 -49 37 -90.5t88 -41.5t88 41t37 91q0 53 -37 92t-88 39zM324 1218.5q0 88.5 63.5 150t153.5 61.5t154.5 -60.5t64.5 -150.5q0 -86 -63.5 -148.5t-155.5 -62.5q-90 0 -153.5 61t-63.5 149.5zM471 684q-86 -200 -126 -297q14 0 67 -2
t75 -2q38 0 105 2q-57 148 -121 299zM307 293q-76 -192 -104 -297q-18 4 -88 4q-84 0 -103 -4q227 494 434 975h195q49 -117 141 -347.5t161 -396.5t101 -231q-25 4 -188 4q-106 0 -131 -4q-31 112 -100 299q-80 2 -131 2q-75 0 -187 -4z" />
    <glyph glyph-name="ae" unicode="&#xe6;" horiz-adv-x="1587" 
d="M680 367v75h-272q-138 -316 -187 -446q-18 4 -67 4q-104 0 -123 -4q213 406 448 950q182 -4 344 -4h473q74 0 123 6l4 -6q-4 -57 -4 -76q0 -10 4 -43l-4 -8q-166 25 -440 25q-16 -55 -16 -267v-32q111 0 162 2t97 9t81 9l6 -6q-6 -29 -6 -63q0 -37 6 -64l-6 -6
q-203 20 -340 20v-73q0 -201 16 -256q123 0 237.5 6t168.5 12l55 6l4 -8q-4 -33 -4 -63q0 -8 4 -66l-4 -6q-49 6 -123 6h-494l-161 -6l-3 6q21 123 21 367zM451 541h229v260q0 43 -11.5 57t-33.5 14q-39 0 -70 -67q-43 -101 -114 -264z" />
    <glyph glyph-name="ccedilla" unicode="&#xe7;" horiz-adv-x="995" 
d="M467 -188l-27 26l66 145q-62 8 -119 26.5t-103.5 46.5t-76.5 63q-121 139 -121 323q0 248 141.5 384.5t356.5 136.5q76 0 187.5 -24t158.5 -50l4 -6l-49 -213l-58 -2q-33 86 -97 134t-128 48q-104 0 -167.5 -93t-63.5 -257q0 -166 65 -279q27 -47 87.5 -83t105.5 -36
q176 0 245 91h33q0 -45 11 -97q-70 -64 -140 -91t-180 -28l-27 -67q90 0 132 -40t42 -89q0 -68 -61 -112t-152 -44q-82 0 -157 35l31 74q70 -27 116 -27q37 0 64.5 18.5t27.5 45.5q0 20 -16 37.5t-43 17.5q-49 0 -88 -14z" />
    <glyph glyph-name="egrave" unicode="&#xe8;" horiz-adv-x="1079" 
d="M319 942h474q74 0 122 6l5 -6q-4 -57 -5 -70q0 -16 5 -49l-5 -8q-166 25 -440 25q-16 -55 -16 -260v-39q111 0 162 2t97 9t81 9l6 -6q-6 -27 -6 -63.5t6 -63.5l-6 -6q-203 20 -340 20v-73q0 -201 16 -256q123 0 237.5 6t169.5 12l54 6l4 -8q-4 -33 -4 -63q0 -8 4 -66
l-4 -6q-49 6 -123 6h-494l-161 -6l-2 6q20 123 20 367v208q0 244 -20 367l2 6q89 -6 161 -6zM510 1456l141 -254q18 -33 19 -53q0 -12 -16.5 -22.5t-32.5 -10.5q-31 0 -78 41l-248 215l4 23q16 18 68.5 41.5t101.5 23.5q25 0 41 -4z" />
    <glyph glyph-name="eacute" unicode="&#xe9;" horiz-adv-x="1079" 
d="M319 942h474q74 0 122 6l5 -6q-4 -57 -5 -70q0 -16 5 -49l-5 -8q-166 25 -440 25q-16 -55 -16 -260v-39q111 0 162 2t97 9t81 9l6 -6q-6 -27 -6 -63.5t6 -63.5l-6 -6q-203 20 -340 20v-73q0 -201 16 -256q123 0 237.5 6t169.5 12l54 6l4 -8q-4 -33 -4 -63q0 -8 4 -66
l-4 -6q-49 6 -123 6h-494l-161 -6l-2 6q20 123 20 367v208q0 244 -20 367l2 6q89 -6 161 -6zM514 1384q12 4 33 5q43 0 83 -16.5t54 -33.5l21 -47l-246 -221q-39 -33 -88 -33q-12 0 -27.5 10.5t-15.5 18.5q0 25 16 49z" />
    <glyph glyph-name="ecircumflex" unicode="&#xea;" horiz-adv-x="1079" 
d="M319 942h474q74 0 122 6l5 -6q-4 -57 -5 -70q0 -16 5 -49l-5 -8q-166 25 -440 25q-16 -55 -16 -260v-39q111 0 162 2t97 9t81 9l6 -6q-6 -27 -6 -63.5t6 -63.5l-6 -6q-203 20 -340 20v-73q0 -201 16 -256q123 0 237.5 6t169.5 12l54 6l4 -8q-4 -33 -4 -63q0 -8 4 -66
l-4 -6q-49 6 -123 6h-494l-161 -6l-2 6q20 123 20 367v208q0 244 -20 367l2 6q89 -6 161 -6zM862 1092l-55 -50q-158 76 -242 158q-80 -74 -239 -158l-56 50q119 123 159 170t97 129h82q47 -68 68.5 -96.5t66.5 -78.5t119 -124z" />
    <glyph glyph-name="edieresis" unicode="&#xeb;" horiz-adv-x="1079" 
d="M319 942h474q74 0 122 6l5 -6q-4 -57 -5 -70q0 -16 5 -49l-5 -8q-166 25 -440 25q-16 -55 -16 -260v-39q111 0 162 2t97 9t81 9l6 -6q-6 -27 -6 -63.5t6 -63.5l-6 -6q-203 20 -340 20v-73q0 -201 16 -256q123 0 237.5 6t169.5 12l54 6l4 -8q-4 -33 -4 -63q0 -8 4 -66
l-4 -6q-49 6 -123 6h-494l-161 -6l-2 6q20 123 20 367v208q0 244 -20 367l2 6q89 -6 161 -6zM614 1235q0 53 38 91t91 38q51 0 88 -38t37 -91q0 -51 -36.5 -89t-88.5 -38q-53 0 -91 38t-38 89zM186 1235q0 53 37 91t88 38q53 0 91 -38t38 -91q0 -51 -37.5 -89t-91.5 -38
q-51 0 -88 38t-37 89z" />
    <glyph glyph-name="igrave" unicode="&#xec;" horiz-adv-x="630" 
d="M457 532v-122q0 -246 24 -410l-4 -6q-123 6 -162 6q-41 0 -163 -6l-2 6q25 156 24 410v122q0 246 -24 410l4 6q123 -6 161 -6q10 0 164 6l2 -6q-24 -156 -24 -410zM311 1456l142 -254q18 -33 18 -53q0 -12 -16.5 -22.5t-32.5 -10.5q-31 0 -78 41l-248 215l4 23
q16 18 68.5 41.5t101.5 23.5q25 0 41 -4z" />
    <glyph glyph-name="iacute" unicode="&#xed;" horiz-adv-x="630" 
d="M457 532v-122q0 -246 24 -410l-4 -6q-123 6 -162 6q-41 0 -163 -6l-2 6q25 156 24 410v122q0 246 -24 410l4 6q123 -6 161 -6q10 0 164 6l2 -6q-24 -156 -24 -410zM338 1384q12 4 33 5q43 0 83 -16.5t54 -33.5l20 -47l-245 -221q-39 -33 -88 -33q-12 0 -27.5 10.5
t-15.5 18.5q0 25 16 49z" />
    <glyph glyph-name="icircumflex" unicode="&#xee;" horiz-adv-x="630" 
d="M457 532v-122q0 -246 24 -410l-4 -6q-123 6 -162 6q-41 0 -163 -6l-2 6q25 156 24 410v122q0 246 -24 410l4 6q123 -6 161 -6q10 0 164 6l2 -6q-24 -156 -24 -410zM608 1118l-55 -49q-158 76 -242 158q-80 -74 -239 -158l-56 49q119 123 159 170t97 129h82
q47 -68 68.5 -96.5t66.5 -78.5t119 -124z" />
    <glyph glyph-name="idieresis" unicode="&#xef;" horiz-adv-x="630" 
d="M457 532v-122q0 -246 24 -410l-4 -6q-123 6 -162 6q-41 0 -163 -6l-2 6q25 156 24 410v122q0 246 -24 410l4 6q123 -6 161 -6q10 0 164 6l2 -6q-24 -156 -24 -410zM410 1212q0 53 37.5 91t91.5 38q51 0 88 -37.5t37 -91.5q0 -51 -37 -89t-88 -38q-53 0 -91 38t-38 89z
M-18 1212q0 53 36.5 91t87.5 38q53 0 91.5 -37.5t38.5 -91.5q0 -51 -38 -89t-92 -38q-51 0 -87.5 38t-36.5 89z" />
    <glyph glyph-name="eth" unicode="&#xf0;" horiz-adv-x="1232" 
d="M459 158q0 -37 4 -51.5t38 -27.5t107 -13q154 0 213.5 74.5t59.5 285.5q0 92 -10.5 161.5t-41 141.5t-96 111t-164.5 39q-61 0 -85.5 -14.5t-24.5 -53.5v-290q90 1 213 7l-21 -125q-108 6 -192 8v-253zM315 942q307 6 371 6q213 0 351.5 -140t138.5 -347
q0 -129 -42 -223.5t-112 -144.5t-146.5 -73.5t-160.5 -23.5q-96 0 -241.5 2t-158.5 2l-157 -6l-2 6q20 123 20 367v43q-86 -2 -162 -7l21 125q66 -3 141 -5v52q0 244 -20 367l2 6q85 -6 157 -6z" />
    <glyph glyph-name="ntilde" unicode="&#xf1;" horiz-adv-x="1159" 
d="M739 1237q59 0 101 111l73 -19q-23 -104 -72.5 -165.5t-125.5 -61.5q-80 0 -142 57q-53 49 -114 49q-43 0 -65.5 -24.5t-35.5 -75.5l-73 14q53 223 180 224q82 0 162 -62q65 -47 112 -47zM147 649q0 195 -14 293l2 4q68 -4 119 -4l133 4l481 -625v328q0 195 -14 293l4 4
q51 -4 88 -4l80 4v-4q-14 -109 -14 -293v-655q-53 6 -99 6q-51 0 -108 -6l-514 648v-1v-348q0 -195 14 -293l-2 -6q-45 6 -80 6l-88 -6l-2 6q14 90 14 293v356z" />
    <glyph glyph-name="ograve" unicode="&#xf2;" horiz-adv-x="1212" 
d="M78 449q0 246 151.5 381t380.5 133q250 0 387.5 -138.5t137.5 -355.5q0 -225 -145.5 -357t-383.5 -132q-233 0 -380.5 127t-147.5 342zM596 852q-215 0 -215 -363q0 -72 10 -135t36 -126.5t79 -101.5t129 -38q80 0 138 79t58 253q0 231 -53 331.5t-182 100.5zM584 1456
l141 -254q18 -33 18 -53q0 -12 -16 -22.5t-33 -10.5q-31 0 -78 41l-247 215l4 23q16 18 68.5 41.5t101.5 23.5q25 0 41 -4z" />
    <glyph glyph-name="oacute" unicode="&#xf3;" horiz-adv-x="1212" 
d="M78 449q0 246 151.5 381t380.5 133q250 0 387.5 -138.5t137.5 -355.5q0 -225 -145.5 -357t-383.5 -132q-233 0 -380.5 127t-147.5 342zM596 852q-215 0 -215 -363q0 -72 10 -135t36 -126.5t79 -101.5t129 -38q80 0 138 79t58 253q0 231 -53 331.5t-182 100.5zM616 1384
q12 4 33 5q43 0 83 -16.5t54 -33.5l21 -47l-246 -221q-39 -33 -88 -33q-12 0 -27.5 10.5t-15.5 18.5q0 25 16 49z" />
    <glyph glyph-name="ocircumflex" unicode="&#xf4;" horiz-adv-x="1212" 
d="M78 449q0 246 151.5 381t380.5 133q250 0 387.5 -138.5t137.5 -355.5q0 -225 -145.5 -357t-383.5 -132q-233 0 -380.5 127t-147.5 342zM596 852q-215 0 -215 -363q0 -72 10 -135t36 -126.5t79 -101.5t129 -38q80 0 138 79t58 253q0 231 -53 331.5t-182 100.5zM899 1049
l-55 -50q-158 76 -242 158q-80 -74 -240 -158l-55 50q119 123 159 170t97 129h82q47 -68 68.5 -96.5t66.5 -78.5t119 -124z" />
    <glyph glyph-name="otilde" unicode="&#xf5;" horiz-adv-x="1212" 
d="M78 449q0 246 151.5 381t380.5 133q250 0 387.5 -138.5t137.5 -355.5q0 -225 -145.5 -357t-383.5 -132q-233 0 -380.5 127t-147.5 342zM596 852q-215 0 -215 -363q0 -72 10 -135t36 -126.5t79 -101.5t129 -38q80 0 138 79t58 253q0 231 -53 331.5t-182 100.5zM727 1237
q59 0 100 111l74 -19q-23 -104 -73 -165.5t-126 -61.5q-80 0 -141 57q-53 49 -115 49q-43 0 -65.5 -24.5t-34.5 -75.5l-74 14q53 223 181 224q82 0 161 -62q66 -47 113 -47z" />
    <glyph glyph-name="odieresis" unicode="&#xf6;" horiz-adv-x="1212" 
d="M78 449q0 246 151.5 381t380.5 133q250 0 387.5 -138.5t137.5 -355.5q0 -225 -145.5 -357t-383.5 -132q-233 0 -380.5 127t-147.5 342zM596 852q-215 0 -215 -363q0 -72 10 -135t36 -126.5t79 -101.5t129 -38q80 0 138 79t58 253q0 231 -53 331.5t-182 100.5zM688 1219
q0 53 38 91t91 38q51 0 88 -38t37 -91q0 -51 -37 -89t-88 -38q-53 0 -91 38t-38 89zM260 1219q0 53 37 91t88 38q53 0 91 -38t38 -91q0 -51 -38 -89t-91 -38q-51 0 -88 38t-37 89z" />
    <glyph glyph-name="divide" unicode="&#xf7;" horiz-adv-x="1116" 
d="M427 799v9q17 44 43.5 71t74.5 45h7q48 -17 75 -43.5t43 -72.5v-9q-12 -35 -27.5 -58t-37.5 -37t-53 -22h-7q-53 11 -78.5 37t-39.5 80zM427 148v8q17 44 43.5 71t74.5 46h7q48 -17 75 -43.5t43 -73.5v-8q-18 -52 -45 -78.5t-73 -38.5h-7q-53 11 -78.5 37t-39.5 80z
M967 549v-143h-820v143h820z" />
    <glyph glyph-name="oslash" unicode="&#xf8;" horiz-adv-x="1212" 
d="M78 449q0 246 151.5 381t380.5 133q63 0 119 -9.5t105 -27.5l86 121l79 -60l-74 -105q69 -43 116 -107t70.5 -141t23.5 -165q0 -225 -145.5 -357t-383.5 -132q-157 0 -279 60l-83 -118l-80 60l79 111q-165 130 -165 356zM596 852q-215 0 -215 -363q0 -98 18 -176l345 486
q-53 53 -148 53zM799 704l-358 -504q65 -112 194 -112q80 0 138 79t58 253q1 186 -32 284z" />
    <glyph glyph-name="ugrave" unicode="&#xf9;" horiz-adv-x="1187" 
d="M1028 573v-135q0 -225 -99.5 -341.5t-336.5 -116.5q-63 0 -129 14t-138.5 48t-118.5 108.5t-46 179.5v243q0 246 -21 369l2 6q123 -6 160 -6q35 0 158 6l4 -6q-20 -129 -21 -369v-159q0 -84 5.5 -136.5t22.5 -105.5t56 -77.5t101 -24.5q57 0 99 13t66.5 43t40 58.5
t21.5 76.5t8 81t2 90v141q0 246 -20 369l2 6q18 0 54 -3t46 -3t45 3t53 3l5 -6q-21 -129 -21 -369zM590 1456l141 -254q18 -33 19 -53q0 -12 -16.5 -22.5t-33.5 -10.5q-31 0 -77 41l-248 215l4 23q16 18 68.5 41.5t101.5 23.5q25 0 41 -4z" />
    <glyph glyph-name="uacute" unicode="&#xfa;" horiz-adv-x="1187" 
d="M1028 573v-135q0 -225 -99.5 -341.5t-336.5 -116.5q-63 0 -129 14t-138.5 48t-118.5 108.5t-46 179.5v243q0 246 -21 369l2 6q123 -6 160 -6q35 0 158 6l4 -6q-20 -129 -21 -369v-159q0 -84 5.5 -136.5t22.5 -105.5t56 -77.5t101 -24.5q57 0 99 13t66.5 43t40 58.5
t21.5 76.5t8 81t2 90v141q0 246 -20 369l2 6q18 0 54 -3t46 -3t45 3t53 3l5 -6q-21 -129 -21 -369zM686 1384q12 4 33 5q43 0 83 -16.5t54 -33.5l21 -47l-246 -221q-39 -33 -88 -33q-12 0 -27.5 10.5t-15.5 18.5q0 25 16 49z" />
    <glyph glyph-name="ucircumflex" unicode="&#xfb;" horiz-adv-x="1187" 
d="M1028 573v-135q0 -225 -99.5 -341.5t-336.5 -116.5q-63 0 -129 14t-138.5 48t-118.5 108.5t-46 179.5v243q0 246 -21 369l2 6q123 -6 160 -6q35 0 158 6l4 -6q-20 -129 -21 -369v-159q0 -84 5.5 -136.5t22.5 -105.5t56 -77.5t101 -24.5q57 0 99 13t66.5 43t40 58.5
t21.5 76.5t8 81t2 90v141q0 246 -20 369l2 6q18 0 54 -3t46 -3t45 3t53 3l5 -6q-21 -129 -21 -369zM930 1130l-56 -49q-158 76 -241 158q-80 -74 -240 -158l-55 49q119 123 159 170.5t97 129.5h82q47 -68 68.5 -96.5t66.5 -79t119 -124.5z" />
    <glyph glyph-name="udieresis" unicode="&#xfc;" horiz-adv-x="1187" 
d="M1028 573v-135q0 -225 -99.5 -341.5t-336.5 -116.5q-63 0 -129 14t-138.5 48t-118.5 108.5t-46 179.5v243q0 246 -21 369l2 6q123 -6 160 -6q35 0 158 6l4 -6q-20 -129 -21 -369v-159q0 -84 5.5 -136.5t22.5 -105.5t56 -77.5t101 -24.5q57 0 99 13t66.5 43t40 58.5
t21.5 76.5t8 81t2 90v141q0 246 -20 369l2 6q18 0 54 -3t46 -3t45 3t53 3l5 -6q-21 -129 -21 -369zM731 1231q0 53 38 91t91 38q51 0 88 -38t37 -91q0 -51 -37 -89t-88 -38q-53 0 -91 38t-38 89zM303 1231q0 53 37 91t88 38q53 0 91 -38t38 -91q0 -51 -38 -89t-91 -38
q-51 0 -88 38t-37 89z" />
    <glyph glyph-name="yacute" unicode="&#xfd;" horiz-adv-x="989" 
d="M598 1384q12 4 33 5q43 0 83 -16.5t54 -33.5l20 -47l-245 -221q-39 -33 -88 -33q-12 0 -27.5 10.5t-15.5 18.5q0 25 16 49zM625 480q1 -367 12 -486q-35 6 -145 6q-109 0 -146 -6q10 93 10 414q-227 384 -331 540q41 -6 96 -6q174 0 211 6q55 -108 214 -380
q126 202 230 380q27 -6 115 -6q47 0 74 6q-280 -371 -340 -468z" />
    <glyph glyph-name="thorn" unicode="&#xfe;" horiz-adv-x="1056" 
d="M442 532v-122q0 -13 0.5 -26t0.5 -26v-25.5t0.5 -25t0.5 -24.5q25 -6 115 -7q94 0 129 53.5t35 159.5q0 84 -33 139.5t-102 55.5q-68 0 -144 -15q-2 -64 -2 -137zM449 775q118 4 223 3q340 0 340 -291q0 -49 -16.5 -96t-53.5 -96t-112.5 -80t-180.5 -31q-53 0 -114 2
t-87 7q6 -107 19 -193l-4 -6q-123 6 -162 6q-41 0 -164 -6l-2 6q25 156 25 410v122q0 246 -25 410l4 6q123 -6 162 -6q10 0 164 6l2 -6q-6 -37 -10.5 -79t-7.5 -88z" />
    <glyph glyph-name="ydieresis" unicode="&#xff;" horiz-adv-x="989" 
d="M600 1219q0 53 38 91t91 38q51 0 88 -38t37 -91q0 -51 -37 -89t-88 -38q-53 0 -91 38t-38 89zM172 1219q0 53 37 91t88 38q53 0 91 -38t38 -91q0 -51 -38 -89t-91 -38q-51 0 -88 38t-37 89zM625 480q1 -367 12 -486q-35 6 -145 6q-109 0 -146 -6q10 93 10 414
q-227 384 -331 540q41 -6 96 -6q174 0 211 6q55 -108 214 -380q126 202 230 380q27 -6 115 -6q47 0 74 6q-280 -371 -340 -468z" />
    <glyph glyph-name="Iogonek" unicode="&#x12e;" horiz-adv-x="718" 
d="M598 -289q-88 -106 -197 -106q-82 0 -129 33q-66 45 -65 122q0 87 41.5 143t126.5 97h-10l-170 -6l-2 6q25 166 24 410v501q0 236 -24 410l4 6q98 -6 168 -6l170 6l2 -6q-25 -162 -25 -410v-501q0 -38 0.5 -75t2 -72.5t3.5 -69.5t4.5 -66t6 -63t7.5 -60l3 -2h-3v-1l-4 -7
q-15 1 -37 2q-62 -18 -87 -76t-25 -125q0 -100 66 -100q41 0 104 67l6 -2z" />
    <glyph glyph-name="obreve" unicode="&#x14f;" horiz-adv-x="1159" 
d="M367 1395q2 -82 63.5 -131.5t157.5 -49.5q84 0 149.5 45.5t69.5 135.5l65 -31q-14 -145 -102 -219t-182 -74q-121 0 -200 83t-89 210zM84 420q0 231 136 356t364 123q248 0 369.5 -127t121.5 -334q0 -213 -131 -335.5t-364 -122.5q-229 0 -362.5 117.5t-133.5 322.5z
M569 797q-84 0 -129 -49.5t-55 -113t-10 -167.5q0 -385 233 -385q176 0 176 301q0 223 -45 318.5t-170 95.5z" />
    <glyph glyph-name="Ohungarumlaut" unicode="&#x150;" horiz-adv-x="1636" 
d="M786 1239q-350 0 -350 -569q0 -285 114 -433.5t306 -148.5q344 0 344 547q0 319 -98.5 461.5t-315.5 142.5zM1530 674q0 -309 -194.5 -501.5t-520.5 -192.5q-305 0 -507 184t-202 471q0 305 199 509t508 204q326 0 521.5 -184.5t195.5 -489.5zM892 1436q-8 -7 -22 -6
q-17 0 -31 15t-7 32l130 238q10 16 24.5 23t31.5 7q36 0 64 -23q39 -30 38 -65q0 -31 -17 -49zM745 1755q39 0 69 -28.5t30 -59.5q0 -5 -0.5 -9.5t-1.5 -8.5t-2 -7.5t-2.5 -6.5t-3.5 -5.5l-4 -5t-4 -4.5l-194 -177l-6 -2l-16 -3q-21 0 -32 17t-6 29l109 241q7 11 17 18
t21 9.5t26 2.5z" />
    <glyph glyph-name="OE" unicode="&#x152;" horiz-adv-x="1974" 
d="M1270 410q0 -205 16 -260q123 0 269.5 11t231.5 22l85 12l4 -9q-4 -33 -4 -112q0 -16 4 -74l-4 -6q-49 6 -123 6h-602q-90 -2 -369 -4q-287 2 -471 189.5t-184 465.5q0 283 176 477.5t457 194.5q109 -1 215 -2h758q74 0 122 6l4 -6q-4 -57 -4 -72q0 -51 4 -84l-4 -8
q-291 25 -565 25q-16 -55 -16 -271v-149q223 0 465 20l6 -6q-6 -29 -6 -76q0 -49 6 -77l-6 -7q-203 20 -465 21v-227zM856 88h27q59 0 81.5 18.5t22.5 63.5v985q0 45 -21.5 60.5t-82.5 15.5h-72q-371 0 -371 -561q0 -297 120 -439.5t296 -142.5z" />
    <glyph glyph-name="oe" unicode="&#x153;" horiz-adv-x="1619" 
d="M666 76q51 0 69.5 15t18.5 52v660q0 43 -33 54t-109 11q-254 0 -254 -409q0 -209 73 -296t235 -87zM897 942h473q74 0 123 6l4 -6q-4 -57 -4 -63q0 -23 4 -56l-4 -8q-166 25 -440 25q-16 -55 -17 -267v-32q111 0 162 2t97 9t81 9l6 -6q-6 -29 -6 -63q0 -37 6 -66l-6 -6
q-203 20 -340 20v-71q0 -201 17 -256q123 0 237.5 6t168.5 12l54 6l5 -8q-4 -33 -5 -63q0 -8 5 -66l-5 -6q-49 6 -122 6h-494q-74 0 -192.5 -3t-126.5 -3q-240 0 -377.5 113.5t-137.5 326.5q0 219 141.5 366.5t370.5 147.5l56 -1q55 -1 133 -3t133 -2z" />
    <glyph glyph-name="Scaron" unicode="&#x160;" horiz-adv-x="1110" 
d="M266 1642l33 64q137 -53 268 -115q104 49 271 115l32 -64q-154 -123 -272 -241h-61q-68 71 -271 241zM518 86q190 0 191 211q0 59 -51.5 117.5t-127.5 97.5q-213 109 -297 183q-43 38 -73 77q-63 82 -64 221q0 158 131 256.5t312 98.5q111 0 215 -22.5t153 -46.5l49 -24
l5 -6q-23 -72 -41 -245l-62 -3q-49 92 -131 169t-166 77q-82 0 -134 -59.5t-52 -138.5q0 -53 15.5 -94.5t49 -71t63 -46t81.5 -40.5q84 -39 137 -69t123.5 -82t107.5 -118.5t37 -146.5q0 -164 -136 -282.5t-353 -118.5q-111 0 -221.5 22.5t-164.5 45.5l-55 24l-4 6
q23 84 41 250l54 2q57 -88 168.5 -166t199.5 -78z" />
    <glyph glyph-name="scaron" unicode="&#x161;" horiz-adv-x="858" 
d="M145 1391l56 39q160 -88 241 -168q78 72 240 168l55 -39q-176 -184 -264 -310h-67q-51 72 -72 99.5t-69 83t-120 127.5zM111 248l61 2q86 -176 219 -176q61 0 97 39t36 112q0 68 -32.5 109t-118.5 65q-264 80 -264 295q0 129 104 199t254 70q76 0 164 -16.5t129 -41.5
l4 -6l-39 -199l-55 -2q-25 59 -82.5 112.5t-124.5 53.5q-55 0 -84 -38t-29 -89q0 -55 28 -96t81 -53q322 -80 321 -320q0 -123 -97 -207t-286 -84q-166 0 -319 60z" />
    <glyph glyph-name="Ydieresis" unicode="&#x178;" horiz-adv-x="1337" 
d="M813 1579q0 53 38 91t91 38t91 -38t38 -91q0 -51 -38 -89t-91 -38t-91 37t-38 90zM362 1579q0 53 38 91t91.5 38t91.5 -38t38 -91t-38 -90t-91.5 -37t-91.5 37t-38 90zM832 623q1 -178 5.5 -367.5t10.5 -261.5q-33 6 -170 6q-135 0 -168 -6q13 131 14 569
q-36 61 -142.5 228t-203.5 315.5t-145 220.5q35 -6 200 -6q125 0 160 6q30 -58 62 -117.5t68.5 -123t65 -111.5t73 -123.5t70.5 -119.5q209 333 335 595q25 -6 119 -6q70 0 96 6q-42 -64 -91.5 -139.5t-83 -126t-71 -107.5t-64 -98.5t-53 -84t-48 -79t-39.5 -69.5z" />
    <glyph glyph-name="zacute" unicode="&#x17a;" horiz-adv-x="1026" 
d="M543 1384q12 4 32 5q43 0 83 -16.5t55 -33.5l20 -47l-246 -221q-39 -33 -88 -33q-12 0 -27.5 10.5t-15.5 18.5q0 25 17 49zM420 121q119 0 254 5t212 11l77 6l4 -6q-4 -33 -4 -78q0 -2 4 -59l-4 -6q-49 6 -123 6h-611l-178 -6l-8 10q14 14 49 66l510 751
q-113 -2 -235.5 -7t-190.5 -10l-67 -5l-7 6q6 49 7 78q0 10 -3.5 28.5t-3.5 30.5l7 6q49 -6 122 -6h562q29 0 69.5 4t72.5 7t36 3q12 0 12 -14q-14 -14 -68 -92z" />
    <glyph glyph-name="Zcaron" unicode="&#x17d;" horiz-adv-x="1320" 
d="M328 1642l32 64q137 -53 269 -115q104 49 270 115l33 -64q-154 -123 -273 -241h-61q-67 71 -270 241zM426 129q119 0 323.5 11.5t350.5 21.5l145 10l4 -6q-4 -33 -4 -88q0 -20 4 -78l-4 -6q-49 6 -145 6h-785l-305 -6l-6 8q12 16 30.5 44t22.5 32l802 1115l-41 -3
q-40 -2 -105 -6t-143.5 -8.5l-157 -9t-143.5 -8.5t-85 -5l-61 -4l-4 6q4 33 4 88q0 20 -4 78l4 6q49 -6 125 -6h747q166 0 258 12q12 0 13 -12q0 -25 -62 -111q-778 -1077 -778 -1081z" />
    <glyph glyph-name="zcaron" unicode="&#x17e;" horiz-adv-x="1026" 
d="M231 1391l56 39q160 -88 241 -168q78 72 240 168l55 -39q-176 -184 -264 -310h-67q-51 72 -72 99.5t-69 83t-120 127.5zM420 121q119 0 254 5t212 11l77 6l4 -6q-4 -33 -4 -78q0 -2 4 -59l-4 -6q-49 6 -123 6h-611l-178 -6l-8 10q14 14 49 66l510 751q-113 -2 -235.5 -7
t-190.5 -10l-67 -5l-7 6q6 49 7 78q0 10 -3.5 28.5t-3.5 30.5l7 6q49 -6 122 -6h562q29 0 69.5 4t72.5 7t36 3q12 0 12 -14q-14 -14 -68 -92z" />
    <glyph glyph-name="florin" unicode="&#x192;" horiz-adv-x="921" 
d="M668 1430q111 0 164 -43.5t53 -96.5q0 -33 -17.5 -54.5t-48.5 -21.5q-70 0 -80 52q-18 104 -73 104q-88 0 -125 -262l-29 -227h215l-10 -80h-217l-4 -35q-77 -681 -116 -864q-65 -306 -185 -362q-34 -15 -74 -15q-76 0 -114 39t-38 76q0 25 18.5 46t45.5 21q47 0 67 -43
q4 -8 6.5 -20.5t4.5 -20.5t10 -15t22 -7q49 0 81 61.5t48.5 176t24.5 226t16.5 265t16.5 239.5l24 232h-170l13 80h73q98 0 113 108q27 215 108 328t177 113z" />
    <glyph glyph-name="uni0197" unicode="&#x197;" horiz-adv-x="718" 
d="M561 754v-70h-49v-274q0 -233 25 -410l-5 -6q-98 6 -167 6l-170 -6l-2 6q25 166 24 410v274h-178v70h178v157q0 236 -24 410l4 6q98 -6 168 -6l170 6l2 -6q-25 -162 -25 -410v-157h49z" />
    <glyph glyph-name="circumflex" unicode="&#x2c6;" horiz-adv-x="714" 
d="M582 1010l-56 -49q-158 76 -241 157q-80 -74 -240 -157l-55 49q119 123 158.5 170t97.5 129h82q47 -68 68.5 -96.5t66.5 -78.5t119 -124z" />
    <glyph glyph-name="ring" unicode="&#x2da;" horiz-adv-x="739" 
d="M371 1505q-53 0 -89 -39t-36 -92q0 -49 36.5 -90t88 -41t88.5 41t37 90q0 53 -37 92t-88 39zM152 1374q0 88 63.5 149.5t153.5 61.5t154.5 -60.5t64.5 -150.5q0 -86 -63.5 -148.5t-155.5 -62.5q-90 0 -153.5 61.5t-63.5 149.5z" />
    <glyph glyph-name="ogonek" unicode="&#x2db;" horiz-adv-x="684" 
d="M543 -346q-39 -53 -106.5 -83t-131.5 -30q-80 0 -134 47t-54 129q0 51 29.5 103.5t88 103.5t99.5 81t106 75l43 -43q-84 -76 -120.5 -135.5t-36.5 -151.5q0 -31 21.5 -48t49.5 -17q78 0 115 36q31 -20 31 -67z" />
    <glyph glyph-name="tilde" unicode="&#x2dc;" horiz-adv-x="598" 
d="M461 1284q59 0 100 111l74 -19q-23 -104 -73 -165.5t-126 -61.5q-80 0 -141 57q-53 49 -115 49q-43 0 -65.5 -24.5t-34.5 -75.5l-74 14q53 223 180 224q82 0 162 -62q66 -47 113 -47z" />
    <glyph glyph-name="uni0305" unicode="&#x305;" horiz-adv-x="0" 
d="M-43 1034h-639q-27 0 -27 33q0 20 14.5 40.5t32.5 20.5h639q31 0 31 -30q0 -20 -16.5 -42t-34.5 -22z" />
    <glyph glyph-name="brevecomb" unicode="&#x306;" horiz-adv-x="0" 
d="M-524 1395q2 -82 63.5 -131.5t157.5 -49.5q84 0 149.5 45.5t69.5 135.5l66 -31q-14 -145 -102.5 -219t-182.5 -74q-121 0 -200 83t-89 210z" />
    <glyph glyph-name="uni0307" unicode="&#x307;" horiz-adv-x="0" 
d="M-483 1214.5q0 61.5 44 103.5t109.5 42t109.5 -42t44 -103.5t-44 -103.5t-109.5 -42t-109.5 42t-44 103.5z" />
    <glyph glyph-name="uni0308" unicode="&#x308;" horiz-adv-x="0" 
d="M-319 1174q0 53 37.5 91t91.5 38q51 0 87.5 -38t36.5 -91q0 -51 -36.5 -89t-87.5 -38q-53 0 -91 38t-38 89zM-748 1174q0 53 37 91t88 38q53 0 91 -38t38 -91q0 -51 -37.5 -89t-91.5 -38q-51 0 -88 38t-37 89z" />
    <glyph glyph-name="hookabovecomb" unicode="&#x309;" horiz-adv-x="0" 
d="M-180 1481q0 -43 -64 -107q-53 -51 -59 -121h-57q2 74 51 150q27 39 26 74q0 68 -59 67q-45 0 -45 -22q0 -8 4 -17q8 -25 8 -35q0 -16 -15.5 -29.5t-29.5 -13.5q-27 0 -41 17.5t-14 38.5q0 37 45 76.5t104 39.5q74 0 110 -40.5t36 -77.5z" />
    <glyph glyph-name="uni030A" unicode="&#x30a;" horiz-adv-x="0" 
d="M-373 1468q-53 0 -89 -38.5t-36 -92.5q0 -49 37 -90t88 -41t88 41t37 90q0 53 -37 92t-88 39zM-592 1337q0 88 63.5 149.5t153.5 61.5t154.5 -60.5t64.5 -150.5q0 -86 -63.5 -148.5t-155.5 -62.5q-90 0 -153.5 61.5t-63.5 149.5z" />
    <glyph glyph-name="uni03F6" unicode="&#x3f6;" horiz-adv-x="862" 
d="M629 496q-14 133 -91 226t-206 93q-115 0 -221 -102l-35 35q102 158 305 157q195 0 305.5 -134t110.5 -322q0 -131 -42 -229.5t-109.5 -149t-134.5 -73t-132 -22.5q-172 0 -273 115l31 43q96 -68 205 -67q37 0 66.5 3t75.5 22.5t76 54t53.5 104t23.5 166.5h-356
q-12 0 -13 10v29q0 14 11.5 27.5t35.5 13.5h314z" />
    <glyph glyph-name="afii10017" unicode="&#x410;" horiz-adv-x="1435" 
d="M843 563q-98 255 -181 449h-13l-191 -447q87 -4 214 -4q64 0 171 2zM410 449q-120 -296 -162 -455q-25 6 -92 6q-90 0 -115 -6q348 764 604 1354h184q418 -1065 562 -1354q-35 6 -187 6q-131 0 -166 -6q-49 177 -152 456q-124 3 -204 3q-52 0 -131 -1.5t-141 -2.5z" />
    <glyph glyph-name="endash" unicode="&#x2013;" horiz-adv-x="1122" 
d="M135 469q-29 0 -29 45q0 20 18.5 47t35.5 27h827q29 0 29 -43q0 -20 -17.5 -48t-35.5 -28h-828z" />
    <glyph glyph-name="emdash" unicode="&#x2014;" horiz-adv-x="1519" 
d="M59 588h1401v-101h-1401v101z" />
    <glyph glyph-name="quoteleft" unicode="&#x2018;" horiz-adv-x="548" 
d="M401 1114v-12q-33 -96 -139 -139h-12q-164 57 -164 270q0 131 94 229.5t217 120.5q12 -10 14.5 -38.5t-3.5 -47.5q-92 -25 -145.5 -86t-53.5 -108q0 -43 12 -56.5t41 -13.5q68 -14 96.5 -36t42.5 -83z" />
    <glyph glyph-name="quoteright" unicode="&#x2019;" horiz-adv-x="548" 
d="M147 1354v12q33 96 140 139h12q164 -57 164 -270q0 -131 -94.5 -229.5t-216.5 -120.5q-12 10 -14.5 38.5t3.5 47.5q92 25 145.5 86t53.5 108q0 43 -12.5 56.5t-40.5 13.5q-68 14 -97 36t-43 83z" />
    <glyph glyph-name="quotesinglbase" unicode="&#x201a;" horiz-adv-x="548" 
d="M147 119v12q33 96 140 139h12q164 -57 164 -270q0 -131 -94.5 -229.5t-216.5 -120.5q-12 10 -14.5 38.5t3.5 47.5q92 25 145.5 86t53.5 108q0 43 -12.5 56.5t-40.5 13.5q-68 14 -97 36t-43 83z" />
    <glyph glyph-name="quotedblleft" unicode="&#x201c;" horiz-adv-x="768" 
d="M672 1116v-12q-33 -96 -140 -139h-12q-164 57 -164 270q0 131 94.5 229.5t217.5 120.5q12 -10 14 -38.5t-4 -47.5q-92 -25 -145.5 -86t-53.5 -108q0 -43 12.5 -56.5t40.5 -13.5q68 -14 97 -36t43 -83zM350 1116v-12q-33 -96 -139 -139h-12q-164 57 -164 270
q0 131 94 229.5t217 120.5q12 -10 14 -38.5t-4 -47.5q-92 -25 -145 -86t-53 -108q0 -43 12 -56.5t41 -13.5q68 -14 96.5 -36t42.5 -83z" />
    <glyph glyph-name="quotedblright" unicode="&#x201d;" horiz-adv-x="768" 
d="M98 1354v12q33 96 140 139h12q164 -57 164 -270q0 -131 -94.5 -229.5t-217.5 -120.5q-12 10 -14 38.5t4 47.5q92 25 145.5 86t53.5 108q0 43 -12.5 56.5t-40.5 13.5q-68 14 -97 36t-43 83zM420 1354v12q33 96 139 139h12q164 -57 164 -270q0 -131 -94 -229.5t-217 -120.5
q-12 10 -14 38.5t4 47.5q92 25 145 86t53 108q0 43 -12 56.5t-41 13.5q-68 14 -96.5 36t-42.5 83z" />
    <glyph glyph-name="quotedblbase" unicode="&#x201e;" horiz-adv-x="768" 
d="M98 117v12q33 96 140 139h12q164 -57 164 -270q0 -131 -94.5 -229.5t-217.5 -120.5q-12 10 -14 38.5t4 47.5q92 25 145.5 86t53.5 108q0 43 -12.5 56.5t-40.5 13.5q-68 14 -97 36t-43 83zM420 117v12q33 96 139 139h12q164 -57 164 -270q0 -131 -94 -229.5t-217 -120.5
q-12 10 -14 38.5t4 47.5q92 25 145 86t53 108q0 43 -12 56.5t-41 13.5q-68 14 -96.5 36t-42.5 83z" />
    <glyph glyph-name="dagger" unicode="&#x2020;" horiz-adv-x="1204" 
d="M633 1427q43 0 70.5 -35.5t27.5 -86.5q0 -258 -61 -383q133 84 317 84q45 0 78 -31t33 -74t-32 -71.5t-79 -28.5q-184 0 -317 80q-4 -281 75 -379q-76 -225 -75 -926h-76q0 373 -14.5 589t-59.5 337q45 49 59.5 137t14.5 242q-127 -80 -318 -80q-47 0 -77.5 28.5
t-30.5 71.5t31.5 74t76.5 31q180 0 318 -84q-61 127 -62 383q0 49 29 85.5t72 36.5z" />
    <glyph glyph-name="daggerdbl" unicode="&#x2021;" horiz-adv-x="1204" 
d="M1098 901q0 -43 -32 -71.5t-79 -28.5q-184 0 -317 80q-4 -281 75 -379q-76 -98 -75 -379q137 80 317 80q45 0 78 -29t33 -72t-33 -72.5t-78 -29.5q-180 0 -317 82q61 -131 61 -383q0 -49 -27.5 -86t-70.5 -37q-41 0 -71 36t-30 87q0 252 62 383q-131 -82 -318 -82
q-43 0 -75.5 29.5t-32.5 72.5t34 72t74 29q186 0 318 -80q0 147 -14.5 236.5t-59.5 142.5q45 49 59.5 137t14.5 242q-127 -80 -318 -80q-47 0 -77.5 28.5t-30.5 71.5t31.5 74t76.5 31q180 0 318 -84q-61 127 -62 383q0 49 29 85.5t72 36.5t70.5 -35.5t27.5 -86.5
q0 -258 -61 -383q133 84 317 84q47 0 79 -31t32 -74z" />
    <glyph glyph-name="bullet" unicode="&#x2022;" horiz-adv-x="718" 
d="M100 479q0 104 78 180t180 76q104 0 182 -76.5t78 -185.5q0 -100 -72.5 -179t-187.5 -79q-106 0 -182 76.5t-76 187.5z" />
    <glyph glyph-name="perthousand" unicode="&#x2030;" horiz-adv-x="1869" 
d="M948 109q0 -68 41 -68q63 0 111 82q51 88 51 199q0 117 -80 116q-31 0 -57.5 -29.5t-40.5 -76.5q-25 -76 -25 -223zM758 186q0 131 80 228.5t211 97.5q188 0 188 -186q0 -154 -77 -259.5t-195 -105.5q-113 0 -160 61.5t-47 163.5zM295 756q0 -68 41 -68q63 0 110 82
q51 88 52 199q0 117 -80 116q-31 0 -57.5 -29.5t-41.5 -76.5q-24 -76 -24 -223zM104 834q0 131 80 228t211 97q92 0 140 -45q37 -1 82 -14t80 -25t48 -12q211 0 308 102l96 -43l-842 -1155l-110 25l749 1026q-115 -47 -221 -47q-70 0 -143 38q1 -8 1.5 -17t0.5 -19
q0 -154 -77 -259.5t-196 -105.5q-113 0 -160 62t-47 164zM1528 150q0 -62 11 -84q13 -25 38 -25q55 0 102 82q51 88 52 199q0 117 -80 116q-59 0 -99 -106q-24 -67 -24 -182zM1337 193q0 140 102 245q72 74 189 74q188 0 189 -186q0 -154 -77 -259.5t-196 -105.5
q-113 0 -160 61.5t-47 170.5z" />
    <glyph glyph-name="guilsinglleft" unicode="&#x2039;" horiz-adv-x="727" 
d="M590 1030v-110q-150 -211 -287 -330q131 -104 287 -328v-110q-250 291 -451 399v80q215 149 451 399z" />
    <glyph glyph-name="guilsinglright" unicode="&#x203a;" horiz-adv-x="727" 
d="M139 145v111q150 211 287 330q-131 104 -287 327v111q250 -291 451 -399v-80q-215 -150 -451 -400z" />
    <glyph glyph-name="Euro" unicode="&#x20ac;" 
d="M29 651l2 21l31 62h72q20 120 69.5 227.5t113.5 168.5q53 51 142.5 85t189.5 34q94 0 175 -20.5t114 -40.5l33 -21l4 -4q-31 -131 -37 -225h-51q-43 88 -66.5 124t-72 61.5t-123.5 25.5q-40 0 -76 -23.5t-66.5 -71.5t-51.5 -130t-27 -190h362l-43 -83h-322v-10
q0 -16 0.5 -31t1 -31t1.5 -32h291l-45 -82h-239q12 -106 38 -186t75.5 -134.5t116.5 -54.5q106 0 160.5 38t111.5 159l41 -2q6 -88 37 -211l-4 -6q-8 -4 -33.5 -16.5t-32 -14.5t-28 -12.5t-28.5 -12.5t-27.5 -8t-31.5 -7t-32.5 -5t-42 -5t-46.5 -2t-54 -1q-74 0 -163 29.5
t-146 80.5q-145 130 -187 371h-135v18l34 64h91q-2 28 -2 59q0 24 1 45h-95z" />
    <glyph glyph-name="trademark" unicode="&#x2122;" horiz-adv-x="1628" 
d="M424 698q0 -49 61 -49h29q10 0 10 -10v-27l-2 -2q-129 2 -170 2l-168 -2l-2 2v27q0 10 11 10h28q63 0 64 49v543q0 41 -29 41h-104q-33 0 -48.5 -18.5t-31.5 -85.5l-45 12l39 184l49 -16q0 -2 -2 -8.5t-3 -10.5l-1 -4h477l-1 4q-1 4 -3 10.5t-2 8.5l51 16l39 -186
l-47 -10q-18 68 -33 86t-49 18h-88q-16 0 -22.5 -8t-6.5 -35v-541zM1380 705l-34 403l-203 -498q-6 -20 -33 -20q-23 0 -35 20q-123 293 -205 488q-16 -260 -28 -396v-12q0 -47 14 -47h31q35 0 35 -14v-17l-7 -12q-80 4 -124 4l-97 -4l-10 12v17q0 14 37 14h29q14 0 22 62
q6 84 20.5 269t20.5 275v6v5q0 35 -18 34h-33q-35 2 -35 13v16l10 12h183l229 -542q20 49 99 244.5t120 297.5h168l6 -12v-16q0 -12 -35 -13h-30q-18 0 -19 -32v-13l47 -544q8 -61 25 -62h29q39 0 38 -14v-17l-12 -12q-90 4 -133 4l-135 -4l-12 12v17q0 14 34 14h29
q12 0 12 47v15z" />
  </font>
</defs>
</svg>
